<svg width="24" height="25" viewBox="0 0 24 25" fill="none" xmlns="http://www.w3.org/2000/svg">
<path d="M11.9986 20.9886C12.1938 20.8677 12.4583 20.6995 12.7738 20.4882C13.4818 20.0141 14.4424 19.3259 15.4524 18.4705C17.4976 16.7384 19.6387 14.4088 20.4089 11.8591L20.41 11.8557C21.4055 8.61663 20.1875 5.14134 17.1818 4.13287C15.575 3.59618 13.7252 3.94509 12.4702 4.95543C12.1985 5.17412 11.812 5.17671 11.5374 4.96166C10.1943 3.90963 8.41508 3.59287 6.80874 4.13259L6.80837 4.13272C3.8039 5.14047 2.59194 8.61434 3.58852 11.8549L11.9986 20.9886ZM11.9986 20.9886C11.8053 20.8695 11.5439 20.7041 11.2323 20.4964C10.529 20.0275 9.57376 19.3456 8.56745 18.4944C6.53124 16.7722 4.38658 14.4409 3.58855 11.855L11.9986 20.9886Z" fill="#F54748" stroke="#F54748" stroke-width="1.5" stroke-linecap="round" stroke-linejoin="round"/>
<path fill-rule="evenodd" clip-rule="evenodd" d="M16 6.97595C17.07 7.3362 17.826 8.33054 17.917 9.49771L16 6.97595Z" fill="#F54748"/>
<path d="M16 6.97595C17.07 7.3362 17.826 8.33054 17.917 9.49771" stroke="#F54748" stroke-width="1.5" stroke-linecap="round" stroke-linejoin="round"/>
</svg>
