<svg width="1357" height="868" viewBox="0 0 1357 868" fill="none" xmlns="http://www.w3.org/2000/svg">
<rect x="132" y="853.242" width="16" height="16" rx="3" transform="rotate(-22.9632 132 853.242)" fill="#F54748"/>
<rect x="1118" y="637.755" width="16" height="16" rx="3" transform="rotate(-22.9632 1118 637.755)" fill="#F54748"/>
<rect x="223" y="529.242" width="16" height="16" rx="3" transform="rotate(-22.9632 223 529.242)" fill="#F54748"/>
<rect x="998" y="6.75513" width="16" height="16" rx="3" transform="rotate(-22.9632 998 6.75513)" fill="#F54748"/>
<rect x="940" y="261.242" width="16" height="16" rx="3" transform="rotate(-22.9632 940 261.242)" fill="#F54748"/>
<rect x="1336.49" y="373.242" width="16" height="16" rx="3" transform="rotate(-22.9632 1336.49 373.242)" fill="#FDC55E"/>
<rect x="664" y="764.242" width="16" height="16" rx="3" transform="rotate(-22.9632 664 764.242)" fill="#FDC55E"/>
<rect y="339.242" width="16" height="16" rx="3" transform="rotate(-22.9632 0 339.242)" fill="#FDC55E"/>
<rect x="442" y="45.2423" width="16" height="16" rx="3" transform="rotate(-22.9632 442 45.2423)" fill="#FDC55E"/>
</svg>
