<svg width="1202" height="823" viewBox="0 0 1202 823" fill="none" xmlns="http://www.w3.org/2000/svg">
<rect width="16" height="16" rx="4" transform="matrix(0.858733 -0.512424 0.662385 0.749163 790 632.199)" fill="#F54748"/>
<rect width="16" height="16" rx="4" transform="matrix(0.858733 -0.512424 0.662385 0.749163 732 154.199)" fill="#F54748"/>
<rect width="16" height="16" rx="4" transform="matrix(0.858733 -0.512424 0.662385 0.749163 1176.97 201.676)" fill="#FDC55E"/>
<rect width="16" height="16" rx="4" transform="matrix(0.858733 -0.512424 0.662385 0.749163 205 320.199)" fill="#FDC55E"/>
<rect width="16" height="16" rx="4" transform="matrix(0.858733 -0.512424 0.662385 0.749163 399 810.199)" fill="#FDC55E"/>
<rect width="16" height="16" rx="4" transform="matrix(0.858733 -0.512424 0.662385 0.749163 884.354 8.76343)" fill="#FDC55E"/>
<rect width="16" height="16" rx="4" transform="matrix(0.858733 -0.512424 0.662385 0.749163 0 59.4165)" fill="#F54748"/>
</svg>
