<svg width="139" height="22" viewBox="0 0 139 22" fill="none" xmlns="http://www.w3.org/2000/svg">
<path d="M15.7239 12.9813C15.4966 13.2088 15.3921 13.5379 15.4439 13.8606L16.224 18.3206C16.2899 18.6986 16.1354 19.0812 15.8292 19.2996C15.529 19.5263 15.1298 19.5534 14.8025 19.3721L10.9159 17.2781C10.7808 17.2038 10.6307 17.1639 10.4771 17.1594H10.2393C10.1568 17.1721 10.0761 17.1992 10.0024 17.2409L6.11495 19.3449C5.92277 19.4447 5.70515 19.48 5.49191 19.4447C4.97241 19.3431 4.62579 18.8319 4.71091 18.2925L5.49191 13.8325C5.54368 13.507 5.43926 13.1762 5.21198 12.945L2.04324 9.77224C1.77822 9.50663 1.68608 9.10777 1.80718 8.74788C1.92477 8.38891 2.22488 8.12693 2.5873 8.068L6.9486 7.41441C7.28031 7.37906 7.57164 7.17056 7.72082 6.86235L9.6426 2.79213C9.68823 2.70148 9.74703 2.61808 9.81811 2.54737L9.89709 2.48392C9.93833 2.43678 9.98572 2.3978 10.0384 2.36607L10.134 2.32981L10.2832 2.26636H10.6526C10.9826 2.30171 11.273 2.50568 11.4249 2.81026L13.3721 6.86235C13.5125 7.15878 13.7854 7.36455 14.1004 7.41441L18.4617 8.068C18.8303 8.12239 19.1383 8.38528 19.2603 8.74788C19.3752 9.11139 19.2761 9.51025 19.0058 9.77224L15.7239 12.9813Z" fill="#FDC55E"/>
<path d="M45.2092 12.9813C44.9819 13.2088 44.8775 13.5379 44.9293 13.8606L45.7094 18.3206C45.7752 18.6986 45.6208 19.0812 45.3145 19.2996C45.0144 19.5263 44.6151 19.5534 44.2878 19.3721L40.4012 17.2781C40.2661 17.2038 40.116 17.1639 39.9625 17.1594H39.7247C39.6422 17.1721 39.5615 17.1992 39.4877 17.2409L35.6003 19.3449C35.4081 19.4447 35.1905 19.48 34.9773 19.4447C34.4578 19.3431 34.1111 18.8319 34.1963 18.2925L34.9773 13.8325C35.029 13.507 34.9246 13.1762 34.6973 12.945L31.5286 9.77224C31.2636 9.50663 31.1714 9.10777 31.2925 8.74788C31.4101 8.38891 31.7102 8.12693 32.0727 8.068L36.434 7.41441C36.7657 7.37906 37.057 7.17056 37.2062 6.86235L39.128 2.79213C39.1736 2.70148 39.2324 2.61808 39.3035 2.54737L39.3824 2.48392C39.4237 2.43678 39.4711 2.3978 39.5237 2.36607L39.6194 2.32981L39.7685 2.26636H40.138C40.4679 2.30171 40.7584 2.50568 40.9102 2.81026L42.8574 6.86235C42.9978 7.15878 43.2708 7.36455 43.5858 7.41441L47.9471 8.068C48.3156 8.12239 48.6237 8.38528 48.7456 8.74788C48.8606 9.11139 48.7614 9.51025 48.4911 9.77224L45.2092 12.9813Z" fill="#FDC55E"/>
<path d="M74.6931 12.9813C74.4658 13.2088 74.3614 13.5379 74.4132 13.8606L75.1933 18.3206C75.2591 18.6986 75.1047 19.0812 74.7984 19.2996C74.4983 19.5263 74.099 19.5534 73.7717 19.3721L69.8851 17.2781C69.75 17.2038 69.5999 17.1639 69.4464 17.1594H69.2086C69.1261 17.1721 69.0453 17.1992 68.9716 17.2409L65.0842 19.3449C64.892 19.4447 64.6744 19.48 64.4611 19.4447C63.9417 19.3431 63.595 18.8319 63.6802 18.2925L64.4611 13.8325C64.5129 13.507 64.4085 13.1762 64.1812 12.945L61.0125 9.77224C60.7475 9.50663 60.6553 9.10777 60.7764 8.74788C60.894 8.38891 61.1941 8.12693 61.5565 8.068L65.9178 7.41441C66.2495 7.37906 66.5409 7.17056 66.6901 6.86235L68.6118 2.79213C68.6575 2.70148 68.7163 2.61808 68.7873 2.54737L68.8663 2.48392C68.9076 2.43678 68.955 2.3978 69.0076 2.36607L69.1033 2.32981L69.2524 2.26636H69.6219C69.9518 2.30171 70.2423 2.50568 70.3941 2.81026L72.3413 6.86235C72.4817 7.15878 72.7546 7.36455 73.0697 7.41441L77.431 8.068C77.7995 8.12239 78.1075 8.38528 78.2295 8.74788C78.3445 9.11139 78.2453 9.51025 77.975 9.77224L74.6931 12.9813Z" fill="#FDC55E"/>
<path d="M104.178 12.9813C103.951 13.2088 103.847 13.5379 103.899 13.8606L104.679 18.3206C104.744 18.6986 104.59 19.0812 104.284 19.2996C103.984 19.5263 103.584 19.5534 103.257 19.3721L99.3705 17.2781C99.2353 17.2038 99.0853 17.1639 98.9317 17.1594H98.6939C98.6114 17.1721 98.5307 17.1992 98.457 17.2409L94.5695 19.3449C94.3774 19.4447 94.1597 19.48 93.9465 19.4447C93.427 19.3431 93.0804 18.8319 93.1655 18.2925L93.9465 13.8325C93.9983 13.507 93.8938 13.1762 93.6666 12.945L90.4978 9.77224C90.2328 9.50663 90.1407 9.10777 90.2618 8.74788C90.3794 8.38891 90.6795 8.12693 91.0419 8.068L95.4032 7.41441C95.7349 7.37906 96.0262 7.17056 96.1754 6.86235L98.0972 2.79213C98.1428 2.70148 98.2016 2.61808 98.2727 2.54737L98.3517 2.48392C98.3929 2.43678 98.4403 2.3978 98.493 2.36607L98.5886 2.32981L98.7378 2.26636H99.1072C99.4372 2.30171 99.7276 2.50568 99.8794 2.81026L101.827 6.86235C101.967 7.15878 102.24 7.36455 102.555 7.41441L106.916 8.068C107.285 8.12239 107.593 8.38528 107.715 8.74788C107.83 9.11139 107.731 9.51025 107.46 9.77224L104.178 12.9813Z" fill="#FDC55E"/>
<path d="M133.663 12.9813C133.436 13.2088 133.332 13.5379 133.383 13.8606L134.163 18.3206C134.229 18.6986 134.075 19.0812 133.769 19.2996C133.468 19.5263 133.069 19.5534 132.742 19.3721L128.855 17.2781C128.72 17.2038 128.57 17.1639 128.417 17.1594H128.179C128.096 17.1721 128.016 17.1992 127.942 17.2409L124.054 19.3449C123.862 19.4447 123.645 19.48 123.431 19.4447C122.912 19.3431 122.565 18.8319 122.65 18.2925L123.431 13.8325C123.483 13.507 123.379 13.1762 123.151 12.945L119.983 9.77224C119.718 9.50663 119.626 9.10777 119.747 8.74788C119.864 8.38891 120.164 8.12693 120.527 8.068L124.888 7.41441C125.22 7.37906 125.511 7.17056 125.66 6.86235L127.582 2.79213C127.628 2.70148 127.686 2.61808 127.758 2.54737L127.837 2.48392C127.878 2.43678 127.925 2.3978 127.978 2.36607L128.073 2.32981L128.223 2.26636H128.592C128.922 2.30171 129.212 2.50568 129.364 2.81026L131.312 6.86235C131.452 7.15878 131.725 7.36455 132.04 7.41441L136.401 8.068C136.77 8.12239 137.078 8.38528 137.2 8.74788C137.315 9.11139 137.216 9.51025 136.945 9.77224L133.663 12.9813Z" stroke="#FDC55E"/>
</svg>
