<svg width="31" height="30" viewBox="0 0 31 30" fill="none" xmlns="http://www.w3.org/2000/svg">
<path d="M10.4023 28.125C21.7228 28.125 27.9173 18.7445 27.9173 10.6235C27.9173 10.3596 27.9173 10.0957 27.9053 9.83175C29.1058 8.96807 30.1502 7.87648 30.9785 6.64093C29.8741 7.13275 28.6856 7.45663 27.4371 7.61257C28.7096 6.85685 29.682 5.6453 30.1502 4.20583C28.9617 4.91357 27.6412 5.41738 26.2366 5.69328C25.1082 4.49373 23.5115 3.75 21.7468 3.75C18.3495 3.75 15.5884 6.50898 15.5884 9.90373C15.5884 10.3835 15.6484 10.8514 15.7444 11.3072C10.6304 11.0553 6.09256 8.59621 3.05535 4.87758C2.52714 5.78925 2.22702 6.84486 2.22702 7.97244C2.22702 10.1077 3.31945 11.991 4.96411 13.0945C3.95571 13.0586 3.00733 12.7827 2.179 12.3268C2.179 12.3508 2.179 12.3748 2.179 12.4108C2.179 15.3857 4.30385 17.8808 7.11297 18.4446C6.59676 18.5885 6.05655 18.6605 5.49232 18.6605C5.09616 18.6605 4.71201 18.6245 4.33986 18.5525C5.12017 20.9996 7.40108 22.775 10.0902 22.823C7.97732 24.4783 5.32425 25.462 2.4431 25.462C1.95091 25.462 1.45871 25.438 0.978516 25.378C3.6916 27.1054 6.9329 28.125 10.4023 28.125Z" fill="#F54748"/>
</svg>
