<svg width="20" height="20" viewBox="0 0 20 20" fill="none" xmlns="http://www.w3.org/2000/svg">
<path d="M12 6C12 5.63181 11.7015 5.33333 11.3333 5.33333C10.9651 5.33333 10.6667 5.63181 10.6667 6V8H8.66666C8.29847 8 8 8.29848 8 8.66667C8 9.03486 8.29847 9.33333 8.66666 9.33333H10.6667V11.3333C10.6667 11.7015 10.9651 12 11.3333 12C11.7015 12 12 11.7015 12 11.3333V9.33333H14C14.3682 9.33333 14.6667 9.03486 14.6667 8.66667C14.6667 8.29848 14.3682 8 14 8H12V6Z" fill="white"/>
<path d="M0.666667 0C0.298477 0 0 0.298477 0 0.666667C0 1.03486 0.298477 1.33333 0.666667 1.33333H2.14615L2.68175 3.47574L4.67808 14.1229C4.73721 14.4382 5.01252 14.6667 5.33333 14.6667H6.66667C5.19391 14.6667 4 15.8606 4 17.3333C4 18.8061 5.19391 20 6.66667 20C8.13942 20 9.33333 18.8061 9.33333 17.3333C9.33333 15.8606 8.13942 14.6667 6.66667 14.6667H16C14.5272 14.6667 13.3333 15.8606 13.3333 17.3333C13.3333 18.8061 14.5272 20 16 20C17.4728 20 18.6667 18.8061 18.6667 17.3333C18.6667 15.8606 17.4728 14.6667 16 14.6667H17.3333C17.6541 14.6667 17.9295 14.4382 17.9886 14.1229L19.9886 3.45619C20.0251 3.26127 19.973 3.06019 19.8463 2.90758C19.7197 2.75496 19.5317 2.66667 19.3333 2.66667H3.85385L3.31343 0.504976C3.23923 0.208198 2.97258 0 2.66667 0H0.666667ZM5.88662 13.3333L4.13662 4H18.53L16.78 13.3333H5.88662ZM8 17.3333C8 18.0697 7.40304 18.6667 6.66667 18.6667C5.93029 18.6667 5.33333 18.0697 5.33333 17.3333C5.33333 16.597 5.93029 16 6.66667 16C7.40304 16 8 16.597 8 17.3333ZM17.3333 17.3333C17.3333 18.0697 16.7364 18.6667 16 18.6667C15.2636 18.6667 14.6667 18.0697 14.6667 17.3333C14.6667 16.597 15.2636 16 16 16C16.7364 16 17.3333 16.597 17.3333 17.3333Z" fill="white"/>
</svg>
