<svg width="380" height="201" viewBox="0 0 380 201" fill="none" xmlns="http://www.w3.org/2000/svg">
<rect width="380" height="201" rx="10" fill="url(#paint0_linear_130_445)"/>
<path d="M42.704 34.248L36.56 51H32.48L26.336 34.248H29.936L34.544 47.568L39.128 34.248H42.704ZM50.6225 51.216C49.3425 51.216 48.1905 50.936 47.1665 50.376C46.1425 49.8 45.3345 48.992 44.7425 47.952C44.1665 46.912 43.8785 45.712 43.8785 44.352C43.8785 42.992 44.1745 41.792 44.7665 40.752C45.3745 39.712 46.1985 38.912 47.2385 38.352C48.2785 37.776 49.4385 37.488 50.7185 37.488C51.9985 37.488 53.1585 37.776 54.1985 38.352C55.2385 38.912 56.0545 39.712 56.6465 40.752C57.2545 41.792 57.5585 42.992 57.5585 44.352C57.5585 45.712 57.2465 46.912 56.6225 47.952C56.0145 48.992 55.1825 49.8 54.1265 50.376C53.0865 50.936 51.9185 51.216 50.6225 51.216ZM50.6225 48.288C51.2305 48.288 51.7985 48.144 52.3265 47.856C52.8705 47.552 53.3025 47.104 53.6225 46.512C53.9425 45.92 54.1025 45.2 54.1025 44.352C54.1025 43.088 53.7665 42.12 53.0945 41.448C52.4385 40.76 51.6305 40.416 50.6705 40.416C49.7105 40.416 48.9025 40.76 48.2465 41.448C47.6065 42.12 47.2865 43.088 47.2865 44.352C47.2865 45.616 47.5985 46.592 48.2225 47.28C48.8625 47.952 49.6625 48.288 50.6225 48.288ZM72.5752 37.704V51H69.1912V49.32C68.7592 49.896 68.1912 50.352 67.4872 50.688C66.7992 51.008 66.0472 51.168 65.2312 51.168C64.1912 51.168 63.2712 50.952 62.4712 50.52C61.6712 50.072 61.0392 49.424 60.5752 48.576C60.1272 47.712 59.9032 46.688 59.9032 45.504V37.704H63.2632V45.024C63.2632 46.08 63.5272 46.896 64.0552 47.472C64.5832 48.032 65.3032 48.312 66.2152 48.312C67.1432 48.312 67.8712 48.032 68.3992 47.472C68.9272 46.896 69.1912 46.08 69.1912 45.024V37.704H72.5752ZM75.0264 44.352C75.0264 42.976 75.3064 41.776 75.8664 40.752C76.4264 39.712 77.2024 38.912 78.1944 38.352C79.1864 37.776 80.3224 37.488 81.6024 37.488C83.2504 37.488 84.6104 37.904 85.6824 38.736C86.7704 39.552 87.4984 40.704 87.8664 42.192H84.2424C84.0504 41.616 83.7224 41.168 83.2584 40.848C82.8104 40.512 82.2504 40.344 81.5784 40.344C80.6184 40.344 79.8584 40.696 79.2984 41.4C78.7384 42.088 78.4584 43.072 78.4584 44.352C78.4584 45.616 78.7384 46.6 79.2984 47.304C79.8584 47.992 80.6184 48.336 81.5784 48.336C82.9384 48.336 83.8264 47.728 84.2424 46.512H87.8664C87.4984 47.952 86.7704 49.096 85.6824 49.944C84.5944 50.792 83.2344 51.216 81.6024 51.216C80.3224 51.216 79.1864 50.936 78.1944 50.376C77.2024 49.8 76.4264 49 75.8664 47.976C75.3064 46.936 75.0264 45.728 75.0264 44.352ZM97.8159 37.512C98.8239 37.512 99.7199 37.736 100.504 38.184C101.288 38.616 101.896 39.264 102.328 40.128C102.776 40.976 103 42 103 43.2V51H99.6399V43.656C99.6399 42.6 99.3759 41.792 98.8479 41.232C98.3199 40.656 97.5999 40.368 96.6879 40.368C95.7599 40.368 95.0239 40.656 94.4799 41.232C93.9519 41.792 93.6879 42.6 93.6879 43.656V51H90.3279V33.24H93.6879V39.36C94.1199 38.784 94.6959 38.336 95.4159 38.016C96.1359 37.68 96.9359 37.512 97.8159 37.512ZM118.555 44.064C118.555 44.544 118.523 44.976 118.459 45.36H108.739C108.819 46.32 109.155 47.072 109.747 47.616C110.339 48.16 111.067 48.432 111.931 48.432C113.179 48.432 114.067 47.896 114.595 46.824H118.219C117.835 48.104 117.099 49.16 116.011 49.992C114.923 50.808 113.587 51.216 112.003 51.216C110.723 51.216 109.571 50.936 108.547 50.376C107.539 49.8 106.747 48.992 106.171 47.952C105.611 46.912 105.331 45.712 105.331 44.352C105.331 42.976 105.611 41.768 106.171 40.728C106.731 39.688 107.515 38.888 108.523 38.328C109.531 37.768 110.691 37.488 112.003 37.488C113.267 37.488 114.395 37.76 115.387 38.304C116.395 38.848 117.171 39.624 117.715 40.632C118.275 41.624 118.555 42.768 118.555 44.064ZM115.075 43.104C115.059 42.24 114.747 41.552 114.139 41.04C113.531 40.512 112.787 40.248 111.907 40.248C111.075 40.248 110.371 40.504 109.795 41.016C109.235 41.512 108.891 42.208 108.763 43.104H115.075ZM124.368 39.768C124.8 39.064 125.36 38.512 126.048 38.112C126.752 37.712 127.552 37.512 128.448 37.512V41.04H127.56C126.504 41.04 125.704 41.288 125.16 41.784C124.632 42.28 124.368 43.144 124.368 44.376V51H121.008V37.704H124.368V39.768Z" fill="white"/>
<path fill-rule="evenodd" clip-rule="evenodd" d="M349.647 37.2948L351.718 39.3648C353.357 40.9748 354.249 43.1598 354.249 45.4598C354.278 47.7598 353.386 49.9476 351.776 51.5835C351.756 51.6046 351.737 51.6231 351.718 51.6417C351.708 51.6509 351.699 51.6602 351.689 51.6698L349.647 53.711C348.842 54.516 348.382 55.6085 348.382 56.7614V59.7198C348.382 64.4923 344.499 68.3764 339.725 68.3764H336.763C335.612 68.3764 334.519 68.8335 333.714 69.6385L331.643 71.7085C329.946 73.4076 327.732 74.2385 325.517 74.2385C323.303 74.2385 321.088 73.4076 319.391 71.7401L317.292 69.6385C316.487 68.8335 315.394 68.3764 314.243 68.3764H311.281C306.507 68.3764 302.624 64.4923 302.624 59.7198V56.7614C302.624 55.6085 302.164 54.516 301.359 53.6823L299.288 51.641C295.923 48.2801 295.894 42.786 299.259 39.3964L301.359 37.2948C302.164 36.4898 302.624 35.3973 302.624 34.2185V31.286C302.624 26.5135 306.507 22.6351 311.281 22.6351H314.243C315.394 22.6351 316.487 22.1723 317.292 21.3673L319.363 19.2973C322.728 15.9076 328.221 15.9076 331.615 19.2714L333.714 21.3673C334.519 22.1723 335.612 22.6351 336.763 22.6351H339.725C344.499 22.6351 348.382 26.5135 348.382 31.286V34.2501C348.382 35.3973 348.842 36.4898 349.647 37.2948ZM318.097 55.4073C318.787 55.4073 319.42 55.1485 319.88 54.6598L334.663 39.8851C335.641 38.9076 335.641 37.2948 334.663 36.3173C333.685 35.3426 332.103 35.3426 331.126 36.3173L316.343 51.0948C315.365 52.0723 315.365 53.6823 316.343 54.6598C316.803 55.1485 317.436 55.4073 318.097 55.4073ZM330.378 52.8773C330.378 54.286 331.5 55.4073 332.909 55.4073C334.289 55.4073 335.411 54.286 335.411 52.8773C335.411 51.5001 334.289 50.376 332.909 50.376C331.5 50.376 330.378 51.5001 330.378 52.8773ZM318.126 35.5985C319.506 35.5985 320.628 36.7198 320.628 38.0998C320.628 39.5114 319.506 40.6298 318.126 40.6298C316.745 40.6298 315.595 39.5114 315.595 38.0998C315.595 36.7198 316.745 35.5985 318.126 35.5985Z" fill="white"/>
<path d="M32.496 137.232C33.9467 136.08 34.608 135.547 34.48 135.632C38.6613 132.176 41.9467 129.339 44.336 127.12C46.768 124.901 48.816 122.576 50.48 120.144C52.144 117.712 52.976 115.344 52.976 113.04C52.976 111.291 52.5707 109.925 51.76 108.944C50.9493 107.963 49.7333 107.472 48.112 107.472C46.4907 107.472 45.2107 108.091 44.272 109.328C43.376 110.523 42.928 112.229 42.928 114.448H32.368C32.4533 110.821 33.2213 107.792 34.672 105.36C36.1653 102.928 38.1067 101.136 40.496 99.984C42.928 98.832 45.616 98.256 48.56 98.256C53.6373 98.256 57.456 99.5573 60.016 102.16C62.6187 104.763 63.92 108.155 63.92 112.336C63.92 116.901 62.3627 121.147 59.248 125.072C56.1333 128.955 52.1653 132.752 47.344 136.464H64.624V145.36H32.496V137.232ZM69.4425 122C69.4425 114.661 70.8505 108.88 73.6665 104.656C76.5252 100.432 81.1118 98.32 87.4265 98.32C93.7412 98.32 98.3065 100.432 101.123 104.656C103.981 108.88 105.411 114.661 105.411 122C105.411 129.424 103.981 135.248 101.123 139.472C98.3065 143.696 93.7412 145.808 87.4265 145.808C81.1118 145.808 76.5252 143.696 73.6665 139.472C70.8505 135.248 69.4425 129.424 69.4425 122ZM94.6585 122C94.6585 117.691 94.1892 114.384 93.2505 112.08C92.3118 109.733 90.3705 108.56 87.4265 108.56C84.4825 108.56 82.5412 109.733 81.6025 112.08C80.6638 114.384 80.1945 117.691 80.1945 122C80.1945 124.901 80.3652 127.312 80.7065 129.232C81.0478 131.109 81.7305 132.645 82.7545 133.84C83.8212 134.992 85.3785 135.568 87.4265 135.568C89.4745 135.568 91.0105 134.992 92.0345 133.84C93.1012 132.645 93.8052 131.109 94.1465 129.232C94.4878 127.312 94.6585 124.901 94.6585 122ZM110.297 111.056C110.297 107.6 111.278 104.933 113.241 103.056C115.246 101.179 117.827 100.24 120.985 100.24C124.142 100.24 126.702 101.179 128.665 103.056C130.627 104.933 131.609 107.6 131.609 111.056C131.609 114.512 130.627 117.179 128.665 119.056C126.702 120.933 124.142 121.872 120.985 121.872C117.827 121.872 115.246 120.933 113.241 119.056C111.278 117.179 110.297 114.512 110.297 111.056ZM153.753 100.944L129.113 146H118.553L143.193 100.944H153.753ZM120.921 106.64C118.873 106.64 117.849 108.112 117.849 111.056C117.849 113.957 118.873 115.408 120.921 115.408C121.902 115.408 122.67 115.045 123.225 114.32C123.779 113.595 124.057 112.507 124.057 111.056C124.057 108.112 123.011 106.64 120.921 106.64ZM140.761 135.888C140.761 132.432 141.742 129.765 143.705 127.888C145.667 126.011 148.227 125.072 151.385 125.072C154.542 125.072 157.102 126.011 159.065 127.888C161.027 129.765 162.009 132.432 162.009 135.888C162.009 139.344 161.027 142.011 159.065 143.888C157.102 145.765 154.542 146.704 151.385 146.704C148.227 146.704 145.667 145.765 143.705 143.888C141.742 142.011 140.761 139.344 140.761 135.888ZM151.321 131.472C150.339 131.472 149.571 131.835 149.017 132.56C148.505 133.285 148.249 134.395 148.249 135.888C148.249 138.789 149.273 140.24 151.321 140.24C152.302 140.24 153.07 139.877 153.625 139.152C154.179 138.427 154.457 137.339 154.457 135.888C154.457 134.437 154.179 133.349 153.625 132.624C153.07 131.856 152.302 131.472 151.321 131.472Z" fill="white"/>
<line x1="32.5" y1="165.5" x2="225.503" y2="165.5" stroke="white" stroke-width="5" stroke-linecap="round"/>
<line x1="32.5" y1="165.5" x2="94.5" y2="165.5" stroke="#FDC55E" stroke-width="5" stroke-linecap="round"/>
<path d="M30.644 184.872V183.668L35.348 176.92H37.28V183.486H38.582V184.872H37.28V187H35.712V184.872H30.644ZM35.782 178.544L32.478 183.486H35.782V178.544ZM46.4845 178.166H41.7945V180.952C41.9905 180.691 42.2798 180.471 42.6625 180.294C43.0545 180.117 43.4698 180.028 43.9085 180.028C44.6925 180.028 45.3271 180.196 45.8125 180.532C46.3071 180.868 46.6571 181.293 46.8625 181.806C47.0771 182.319 47.1845 182.861 47.1845 183.43C47.1845 184.121 47.0491 184.737 46.7785 185.278C46.5171 185.81 46.1205 186.23 45.5885 186.538C45.0658 186.846 44.4218 187 43.6565 187C42.6391 187 41.8225 186.748 41.2065 186.244C40.5905 185.74 40.2218 185.073 40.1005 184.242H41.6545C41.7571 184.681 41.9858 185.031 42.3405 185.292C42.6951 185.544 43.1385 185.67 43.6705 185.67C44.3331 185.67 44.8278 185.469 45.1545 185.068C45.4905 184.667 45.6585 184.135 45.6585 183.472C45.6585 182.8 45.4905 182.287 45.1545 181.932C44.8185 181.568 44.3238 181.386 43.6705 181.386C43.2131 181.386 42.8258 181.503 42.5085 181.736C42.2005 181.96 41.9765 182.268 41.8365 182.66H40.3245V176.766H46.4845V178.166ZM48.5939 179.258C48.5939 178.577 48.7899 178.045 49.1819 177.662C49.5832 177.27 50.0965 177.074 50.7219 177.074C51.3472 177.074 51.8559 177.27 52.2479 177.662C52.6492 178.045 52.8499 178.577 52.8499 179.258C52.8499 179.939 52.6492 180.476 52.2479 180.868C51.8559 181.26 51.3472 181.456 50.7219 181.456C50.0965 181.456 49.5832 181.26 49.1819 180.868C48.7899 180.476 48.5939 179.939 48.5939 179.258ZM57.1339 177.256L51.5479 187H49.9799L55.5659 177.256H57.1339ZM50.7219 178.04C50.1339 178.04 49.8399 178.446 49.8399 179.258C49.8399 180.079 50.1339 180.49 50.7219 180.49C51.0019 180.49 51.2165 180.392 51.3659 180.196C51.5245 179.991 51.6039 179.678 51.6039 179.258C51.6039 178.446 51.3099 178.04 50.7219 178.04ZM54.2919 184.984C54.2919 184.303 54.4879 183.771 54.8799 183.388C55.2812 182.996 55.7945 182.8 56.4199 182.8C57.0359 182.8 57.5399 182.996 57.9319 183.388C58.3332 183.771 58.5339 184.303 58.5339 184.984C58.5339 185.665 58.3332 186.202 57.9319 186.594C57.5399 186.986 57.0359 187.182 56.4199 187.182C55.7945 187.182 55.2812 186.986 54.8799 186.594C54.4879 186.202 54.2919 185.665 54.2919 184.984ZM56.4059 183.766C55.8179 183.766 55.5239 184.172 55.5239 184.984C55.5239 185.796 55.8179 186.202 56.4059 186.202C56.9939 186.202 57.2879 185.796 57.2879 184.984C57.2879 184.172 56.9939 183.766 56.4059 183.766ZM70.7938 179.286V187H69.1978V186.09C68.9458 186.407 68.6145 186.659 68.2038 186.846C67.8025 187.023 67.3731 187.112 66.9158 187.112C66.3091 187.112 65.7631 186.986 65.2778 186.734C64.8018 186.482 64.4238 186.109 64.1438 185.614C63.8731 185.119 63.7378 184.522 63.7378 183.822V179.286H65.3198V183.584C65.3198 184.275 65.4925 184.807 65.8378 185.18C66.1831 185.544 66.6545 185.726 67.2518 185.726C67.8491 185.726 68.3205 185.544 68.6658 185.18C69.0205 184.807 69.1978 184.275 69.1978 183.584V179.286H70.7938ZM75.6996 187.126C75.0929 187.126 74.5469 187.019 74.0616 186.804C73.5856 186.58 73.2076 186.281 72.9276 185.908C72.6476 185.525 72.4983 185.101 72.4796 184.634H74.1316C74.1596 184.961 74.3136 185.236 74.5936 185.46C74.8829 185.675 75.2423 185.782 75.6716 185.782C76.1196 185.782 76.4649 185.698 76.7076 185.53C76.9596 185.353 77.0856 185.129 77.0856 184.858C77.0856 184.569 76.9456 184.354 76.6656 184.214C76.3949 184.074 75.9609 183.92 75.3636 183.752C74.7849 183.593 74.3136 183.439 73.9496 183.29C73.5856 183.141 73.2683 182.912 72.9976 182.604C72.7363 182.296 72.6056 181.89 72.6056 181.386C72.6056 180.975 72.7269 180.602 72.9696 180.266C73.2123 179.921 73.5576 179.65 74.0056 179.454C74.4629 179.258 74.9856 179.16 75.5736 179.16C76.4509 179.16 77.1556 179.384 77.6876 179.832C78.2289 180.271 78.5183 180.873 78.5556 181.638H76.9596C76.9316 181.293 76.7916 181.017 76.5396 180.812C76.2876 180.607 75.9469 180.504 75.5176 180.504C75.0976 180.504 74.7756 180.583 74.5516 180.742C74.3276 180.901 74.2156 181.111 74.2156 181.372C74.2156 181.577 74.2903 181.75 74.4396 181.89C74.5889 182.03 74.7709 182.142 74.9856 182.226C75.2003 182.301 75.5176 182.399 75.9376 182.52C76.4976 182.669 76.9549 182.823 77.3096 182.982C77.6736 183.131 77.9863 183.355 78.2476 183.654C78.5089 183.953 78.6443 184.349 78.6536 184.844C78.6536 185.283 78.5323 185.675 78.2896 186.02C78.0469 186.365 77.7016 186.636 77.2536 186.832C76.8149 187.028 76.2969 187.126 75.6996 187.126ZM87.4481 182.954C87.4481 183.243 87.4295 183.505 87.3921 183.738H81.4981C81.5448 184.354 81.7735 184.849 82.1841 185.222C82.5948 185.595 83.0988 185.782 83.6961 185.782C84.5548 185.782 85.1615 185.423 85.5161 184.704H87.2381C87.0048 185.413 86.5801 185.997 85.9641 186.454C85.3575 186.902 84.6015 187.126 83.6961 187.126C82.9588 187.126 82.2961 186.963 81.7081 186.636C81.1295 186.3 80.6721 185.833 80.3361 185.236C80.0095 184.629 79.8461 183.929 79.8461 183.136C79.8461 182.343 80.0048 181.647 80.3221 181.05C80.6488 180.443 81.1015 179.977 81.6801 179.65C82.2681 179.323 82.9401 179.16 83.6961 179.16C84.4241 179.16 85.0728 179.319 85.6421 179.636C86.2115 179.953 86.6548 180.401 86.9721 180.98C87.2895 181.549 87.4481 182.207 87.4481 182.954ZM85.7821 182.45C85.7728 181.862 85.5628 181.391 85.1521 181.036C84.7415 180.681 84.2328 180.504 83.6261 180.504C83.0755 180.504 82.6041 180.681 82.2121 181.036C81.8201 181.381 81.5868 181.853 81.5121 182.45H85.7821ZM88.4868 183.108C88.4868 182.333 88.6454 181.647 88.9628 181.05C89.2894 180.453 89.7281 179.991 90.2788 179.664C90.8388 179.328 91.4594 179.16 92.1408 179.16C92.6448 179.16 93.1394 179.272 93.6248 179.496C94.1194 179.711 94.5114 180 94.8008 180.364V176.64H96.4108V187H94.8008V185.838C94.5394 186.211 94.1754 186.519 93.7088 186.762C93.2514 187.005 92.7241 187.126 92.1268 187.126C91.4548 187.126 90.8388 186.958 90.2788 186.622C89.7281 186.277 89.2894 185.801 88.9628 185.194C88.6454 184.578 88.4868 183.883 88.4868 183.108ZM94.8008 183.136C94.8008 182.604 94.6888 182.142 94.4648 181.75C94.2501 181.358 93.9654 181.059 93.6108 180.854C93.2561 180.649 92.8734 180.546 92.4628 180.546C92.0521 180.546 91.6694 180.649 91.3148 180.854C90.9601 181.05 90.6708 181.344 90.4468 181.736C90.2321 182.119 90.1248 182.576 90.1248 183.108C90.1248 183.64 90.2321 184.107 90.4468 184.508C90.6708 184.909 90.9601 185.217 91.3148 185.432C91.6788 185.637 92.0614 185.74 92.4628 185.74C92.8734 185.74 93.2561 185.637 93.6108 185.432C93.9654 185.227 94.2501 184.928 94.4648 184.536C94.6888 184.135 94.8008 183.668 94.8008 183.136Z" fill="white"/>
<defs>
<linearGradient id="paint0_linear_130_445" x1="0" y1="0" x2="374.489" y2="195.998" gradientUnits="userSpaceOnUse">
<stop offset="0.27" stop-color="#F54748"/>
<stop offset="0.74" stop-color="#FDC55E"/>
</linearGradient>
</defs>
</svg>
