<svg width="380" height="201" viewBox="0 0 380 201" fill="none" xmlns="http://www.w3.org/2000/svg">
<rect width="380" height="201" rx="10" fill="url(#paint0_linear_130_476)"/>
<path d="M42.704 29.248L36.56 46H32.48L26.336 29.248H29.936L34.544 42.568L39.128 29.248H42.704ZM50.6225 46.216C49.3425 46.216 48.1905 45.936 47.1665 45.376C46.1425 44.8 45.3345 43.992 44.7425 42.952C44.1665 41.912 43.8785 40.712 43.8785 39.352C43.8785 37.992 44.1745 36.792 44.7665 35.752C45.3745 34.712 46.1985 33.912 47.2385 33.352C48.2785 32.776 49.4385 32.488 50.7185 32.488C51.9985 32.488 53.1585 32.776 54.1985 33.352C55.2385 33.912 56.0545 34.712 56.6465 35.752C57.2545 36.792 57.5585 37.992 57.5585 39.352C57.5585 40.712 57.2465 41.912 56.6225 42.952C56.0145 43.992 55.1825 44.8 54.1265 45.376C53.0865 45.936 51.9185 46.216 50.6225 46.216ZM50.6225 43.288C51.2305 43.288 51.7985 43.144 52.3265 42.856C52.8705 42.552 53.3025 42.104 53.6225 41.512C53.9425 40.92 54.1025 40.2 54.1025 39.352C54.1025 38.088 53.7665 37.12 53.0945 36.448C52.4385 35.76 51.6305 35.416 50.6705 35.416C49.7105 35.416 48.9025 35.76 48.2465 36.448C47.6065 37.12 47.2865 38.088 47.2865 39.352C47.2865 40.616 47.5985 41.592 48.2225 42.28C48.8625 42.952 49.6625 43.288 50.6225 43.288ZM72.5752 32.704V46H69.1912V44.32C68.7592 44.896 68.1912 45.352 67.4872 45.688C66.7992 46.008 66.0472 46.168 65.2312 46.168C64.1912 46.168 63.2712 45.952 62.4712 45.52C61.6712 45.072 61.0392 44.424 60.5752 43.576C60.1272 42.712 59.9032 41.688 59.9032 40.504V32.704H63.2632V40.024C63.2632 41.08 63.5272 41.896 64.0552 42.472C64.5832 43.032 65.3032 43.312 66.2152 43.312C67.1432 43.312 67.8712 43.032 68.3992 42.472C68.9272 41.896 69.1912 41.08 69.1912 40.024V32.704H72.5752ZM75.0264 39.352C75.0264 37.976 75.3064 36.776 75.8664 35.752C76.4264 34.712 77.2024 33.912 78.1944 33.352C79.1864 32.776 80.3224 32.488 81.6024 32.488C83.2504 32.488 84.6104 32.904 85.6824 33.736C86.7704 34.552 87.4984 35.704 87.8664 37.192H84.2424C84.0504 36.616 83.7224 36.168 83.2584 35.848C82.8104 35.512 82.2504 35.344 81.5784 35.344C80.6184 35.344 79.8584 35.696 79.2984 36.4C78.7384 37.088 78.4584 38.072 78.4584 39.352C78.4584 40.616 78.7384 41.6 79.2984 42.304C79.8584 42.992 80.6184 43.336 81.5784 43.336C82.9384 43.336 83.8264 42.728 84.2424 41.512H87.8664C87.4984 42.952 86.7704 44.096 85.6824 44.944C84.5944 45.792 83.2344 46.216 81.6024 46.216C80.3224 46.216 79.1864 45.936 78.1944 45.376C77.2024 44.8 76.4264 44 75.8664 42.976C75.3064 41.936 75.0264 40.728 75.0264 39.352ZM97.8159 32.512C98.8239 32.512 99.7199 32.736 100.504 33.184C101.288 33.616 101.896 34.264 102.328 35.128C102.776 35.976 103 37 103 38.2V46H99.6399V38.656C99.6399 37.6 99.3759 36.792 98.8479 36.232C98.3199 35.656 97.5999 35.368 96.6879 35.368C95.7599 35.368 95.0239 35.656 94.4799 36.232C93.9519 36.792 93.6879 37.6 93.6879 38.656V46H90.3279V28.24H93.6879V34.36C94.1199 33.784 94.6959 33.336 95.4159 33.016C96.1359 32.68 96.9359 32.512 97.8159 32.512ZM118.555 39.064C118.555 39.544 118.523 39.976 118.459 40.36H108.739C108.819 41.32 109.155 42.072 109.747 42.616C110.339 43.16 111.067 43.432 111.931 43.432C113.179 43.432 114.067 42.896 114.595 41.824H118.219C117.835 43.104 117.099 44.16 116.011 44.992C114.923 45.808 113.587 46.216 112.003 46.216C110.723 46.216 109.571 45.936 108.547 45.376C107.539 44.8 106.747 43.992 106.171 42.952C105.611 41.912 105.331 40.712 105.331 39.352C105.331 37.976 105.611 36.768 106.171 35.728C106.731 34.688 107.515 33.888 108.523 33.328C109.531 32.768 110.691 32.488 112.003 32.488C113.267 32.488 114.395 32.76 115.387 33.304C116.395 33.848 117.171 34.624 117.715 35.632C118.275 36.624 118.555 37.768 118.555 39.064ZM115.075 38.104C115.059 37.24 114.747 36.552 114.139 36.04C113.531 35.512 112.787 35.248 111.907 35.248C111.075 35.248 110.371 35.504 109.795 36.016C109.235 36.512 108.891 37.208 108.763 38.104H115.075ZM124.368 34.768C124.8 34.064 125.36 33.512 126.048 33.112C126.752 32.712 127.552 32.512 128.448 32.512V36.04H127.56C126.504 36.04 125.704 36.288 125.16 36.784C124.632 37.28 124.368 38.144 124.368 39.376V46H121.008V32.704H124.368V34.768Z" fill="white"/>
<path fill-rule="evenodd" clip-rule="evenodd" d="M351.647 37.2948L353.718 39.3648C355.357 40.9748 356.249 43.1598 356.249 45.4598C356.278 47.7598 355.386 49.9476 353.776 51.5835C353.756 51.6046 353.737 51.6231 353.718 51.6417C353.708 51.6509 353.699 51.6602 353.689 51.6698L351.647 53.711C350.842 54.516 350.382 55.6085 350.382 56.7614V59.7198C350.382 64.4923 346.499 68.3764 341.725 68.3764H338.763C337.612 68.3764 336.519 68.8335 335.714 69.6385L333.643 71.7085C331.946 73.4076 329.732 74.2385 327.517 74.2385C325.303 74.2385 323.088 73.4076 321.391 71.7401L319.292 69.6385C318.487 68.8335 317.394 68.3764 316.243 68.3764H313.281C308.507 68.3764 304.624 64.4923 304.624 59.7198V56.7614C304.624 55.6085 304.164 54.516 303.359 53.6823L301.288 51.641C297.923 48.2801 297.894 42.786 301.259 39.3964L303.359 37.2948C304.164 36.4898 304.624 35.3973 304.624 34.2185V31.286C304.624 26.5135 308.507 22.6351 313.281 22.6351H316.243C317.394 22.6351 318.487 22.1723 319.292 21.3673L321.363 19.2973C324.728 15.9076 330.221 15.9076 333.615 19.2714L335.714 21.3673C336.519 22.1723 337.612 22.6351 338.763 22.6351H341.725C346.499 22.6351 350.382 26.5135 350.382 31.286V34.2501C350.382 35.3973 350.842 36.4898 351.647 37.2948ZM320.097 55.4073C320.787 55.4073 321.42 55.1485 321.88 54.6598L336.663 39.8851C337.641 38.9076 337.641 37.2948 336.663 36.3173C335.685 35.3426 334.103 35.3426 333.126 36.3173L318.343 51.0948C317.365 52.0723 317.365 53.6823 318.343 54.6598C318.803 55.1485 319.436 55.4073 320.097 55.4073ZM332.378 52.8773C332.378 54.286 333.499 55.4073 334.909 55.4073C336.289 55.4073 337.411 54.286 337.411 52.8773C337.411 51.5001 336.289 50.376 334.909 50.376C333.499 50.376 332.378 51.5001 332.378 52.8773ZM320.126 35.5985C321.506 35.5985 322.628 36.7198 322.628 38.0998C322.628 39.5114 321.506 40.6298 320.126 40.6298C318.745 40.6298 317.595 39.5114 317.595 38.0998C317.595 36.7198 318.745 35.5985 320.126 35.5985Z" fill="white"/>
<path d="M44.656 127.304C45.296 130.675 47.2587 132.36 50.544 132.36C52.8053 132.36 54.4053 131.357 55.344 129.352C56.2827 127.347 56.752 124.083 56.752 119.56C55.8133 120.883 54.5333 121.907 52.912 122.632C51.2907 123.357 49.4773 123.72 47.472 123.72C44.7413 123.72 42.3093 123.165 40.176 122.056C38.0427 120.904 36.3573 119.219 35.12 117C33.9253 114.739 33.328 112.008 33.328 108.808C33.328 105.651 33.968 102.899 35.248 100.552C36.5707 98.2053 38.4267 96.392 40.816 95.112C43.248 93.832 46.1067 93.192 49.392 93.192C55.7067 93.192 60.1227 95.1547 62.64 99.08C65.1573 103.005 66.416 108.787 66.416 116.424C66.416 121.971 65.904 126.557 64.88 130.184C63.8987 133.768 62.2133 136.499 59.824 138.376C57.4773 140.253 54.256 141.192 50.16 141.192C46.9173 141.192 44.144 140.552 41.84 139.272C39.5787 137.992 37.8293 136.307 36.592 134.216C35.3973 132.125 34.7147 129.821 34.544 127.304H44.656ZM49.968 115.08C51.76 115.08 53.1893 114.547 54.256 113.48C55.3227 112.371 55.856 110.877 55.856 109C55.856 106.952 55.3013 105.373 54.192 104.264C53.0827 103.155 51.5893 102.6 49.712 102.6C47.8347 102.6 46.3413 103.176 45.232 104.328C44.1653 105.437 43.632 106.973 43.632 108.936C43.632 110.771 44.1653 112.264 45.232 113.416C46.3413 114.525 47.92 115.08 49.968 115.08ZM84.031 127.304C84.671 130.675 86.6337 132.36 89.919 132.36C92.1803 132.36 93.7803 131.357 94.719 129.352C95.6577 127.347 96.127 124.083 96.127 119.56C95.1883 120.883 93.9083 121.907 92.287 122.632C90.6657 123.357 88.8523 123.72 86.847 123.72C84.1163 123.72 81.6843 123.165 79.551 122.056C77.4177 120.904 75.7323 119.219 74.495 117C73.3003 114.739 72.703 112.008 72.703 108.808C72.703 105.651 73.343 102.899 74.623 100.552C75.9457 98.2053 77.8017 96.392 80.191 95.112C82.623 93.832 85.4817 93.192 88.767 93.192C95.0817 93.192 99.4977 95.1547 102.015 99.08C104.532 103.005 105.791 108.787 105.791 116.424C105.791 121.971 105.279 126.557 104.255 130.184C103.274 133.768 101.588 136.499 99.199 138.376C96.8523 140.253 93.631 141.192 89.535 141.192C86.2923 141.192 83.519 140.552 81.215 139.272C78.9537 137.992 77.2043 136.307 75.967 134.216C74.7723 132.125 74.0897 129.821 73.919 127.304H84.031ZM89.343 115.08C91.135 115.08 92.5643 114.547 93.631 113.48C94.6977 112.371 95.231 110.877 95.231 109C95.231 106.952 94.6763 105.373 93.567 104.264C92.4577 103.155 90.9643 102.6 89.087 102.6C87.2097 102.6 85.7163 103.176 84.607 104.328C83.5403 105.437 83.007 106.973 83.007 108.936C83.007 110.771 83.5403 112.264 84.607 113.416C85.7163 114.525 87.295 115.08 89.343 115.08ZM110.734 106.056C110.734 102.6 111.715 99.9333 113.678 98.056C115.683 96.1787 118.265 95.24 121.422 95.24C124.579 95.24 127.139 96.1787 129.102 98.056C131.065 99.9333 132.046 102.6 132.046 106.056C132.046 109.512 131.065 112.179 129.102 114.056C127.139 115.933 124.579 116.872 121.422 116.872C118.265 116.872 115.683 115.933 113.678 114.056C111.715 112.179 110.734 109.512 110.734 106.056ZM154.19 95.944L129.55 141H118.99L143.63 95.944H154.19ZM121.358 101.64C119.31 101.64 118.286 103.112 118.286 106.056C118.286 108.957 119.31 110.408 121.358 110.408C122.339 110.408 123.107 110.045 123.662 109.32C124.217 108.595 124.494 107.507 124.494 106.056C124.494 103.112 123.449 101.64 121.358 101.64ZM141.198 130.888C141.198 127.432 142.179 124.765 144.142 122.888C146.105 121.011 148.665 120.072 151.822 120.072C154.979 120.072 157.539 121.011 159.502 122.888C161.465 124.765 162.446 127.432 162.446 130.888C162.446 134.344 161.465 137.011 159.502 138.888C157.539 140.765 154.979 141.704 151.822 141.704C148.665 141.704 146.105 140.765 144.142 138.888C142.179 137.011 141.198 134.344 141.198 130.888ZM151.758 126.472C150.777 126.472 150.009 126.835 149.454 127.56C148.942 128.285 148.686 129.395 148.686 130.888C148.686 133.789 149.71 135.24 151.758 135.24C152.739 135.24 153.507 134.877 154.062 134.152C154.617 133.427 154.894 132.339 154.894 130.888C154.894 129.437 154.617 128.349 154.062 127.624C153.507 126.856 152.739 126.472 151.758 126.472Z" fill="white"/>
<line x1="32.5" y1="160.5" x2="225.503" y2="160.5" stroke="white" stroke-width="5" stroke-linecap="round"/>
<line x1="32.5" y1="160.5" x2="225.5" y2="160.5" stroke="#FDC55E" stroke-width="5" stroke-linecap="round"/>
<path d="M30.63 173.25V171.794H33.542V182H31.932V173.25H30.63ZM35.7345 176.764C35.7345 175.149 36.0052 173.889 36.5465 172.984C37.0972 172.069 38.0399 171.612 39.3745 171.612C40.7092 171.612 41.6472 172.069 42.1885 172.984C42.7392 173.889 43.0145 175.149 43.0145 176.764C43.0145 178.397 42.7392 179.676 42.1885 180.6C41.6472 181.515 40.7092 181.972 39.3745 181.972C38.0399 181.972 37.0972 181.515 36.5465 180.6C36.0052 179.676 35.7345 178.397 35.7345 176.764ZM41.4465 176.764C41.4465 176.008 41.3952 175.369 41.2925 174.846C41.1992 174.323 41.0032 173.899 40.7045 173.572C40.4059 173.236 39.9625 173.068 39.3745 173.068C38.7865 173.068 38.3432 173.236 38.0445 173.572C37.7459 173.899 37.5452 174.323 37.4425 174.846C37.3492 175.369 37.3025 176.008 37.3025 176.764C37.3025 177.548 37.3492 178.206 37.4425 178.738C37.5359 179.27 37.7319 179.699 38.0305 180.026C38.3385 180.353 38.7865 180.516 39.3745 180.516C39.9625 180.516 40.4059 180.353 40.7045 180.026C41.0125 179.699 41.2132 179.27 41.3065 178.738C41.3999 178.206 41.4465 177.548 41.4465 176.764ZM44.7033 176.764C44.7033 175.149 44.9739 173.889 45.5153 172.984C46.0659 172.069 47.0086 171.612 48.3433 171.612C49.6779 171.612 50.6159 172.069 51.1573 172.984C51.7079 173.889 51.9833 175.149 51.9833 176.764C51.9833 178.397 51.7079 179.676 51.1573 180.6C50.6159 181.515 49.6779 181.972 48.3433 181.972C47.0086 181.972 46.0659 181.515 45.5153 180.6C44.9739 179.676 44.7033 178.397 44.7033 176.764ZM50.4153 176.764C50.4153 176.008 50.3639 175.369 50.2613 174.846C50.1679 174.323 49.9719 173.899 49.6733 173.572C49.3746 173.236 48.9313 173.068 48.3433 173.068C47.7553 173.068 47.3119 173.236 47.0133 173.572C46.7146 173.899 46.5139 174.323 46.4113 174.846C46.3179 175.369 46.2713 176.008 46.2713 176.764C46.2713 177.548 46.3179 178.206 46.4113 178.738C46.5046 179.27 46.7006 179.699 46.9993 180.026C47.3073 180.353 47.7553 180.516 48.3433 180.516C48.9313 180.516 49.3746 180.353 49.6733 180.026C49.9813 179.699 50.1819 179.27 50.2753 178.738C50.3686 178.206 50.4153 177.548 50.4153 176.764ZM53.42 174.258C53.42 173.577 53.616 173.045 54.008 172.662C54.4094 172.27 54.9227 172.074 55.548 172.074C56.1734 172.074 56.682 172.27 57.074 172.662C57.4754 173.045 57.676 173.577 57.676 174.258C57.676 174.939 57.4754 175.476 57.074 175.868C56.682 176.26 56.1734 176.456 55.548 176.456C54.9227 176.456 54.4094 176.26 54.008 175.868C53.616 175.476 53.42 174.939 53.42 174.258ZM61.96 172.256L56.374 182H54.806L60.392 172.256H61.96ZM55.548 173.04C54.96 173.04 54.666 173.446 54.666 174.258C54.666 175.079 54.96 175.49 55.548 175.49C55.828 175.49 56.0427 175.392 56.192 175.196C56.3507 174.991 56.43 174.678 56.43 174.258C56.43 173.446 56.136 173.04 55.548 173.04ZM59.118 179.984C59.118 179.303 59.314 178.771 59.706 178.388C60.1074 177.996 60.6207 177.8 61.246 177.8C61.862 177.8 62.366 177.996 62.758 178.388C63.1594 178.771 63.36 179.303 63.36 179.984C63.36 180.665 63.1594 181.202 62.758 181.594C62.366 181.986 61.862 182.182 61.246 182.182C60.6207 182.182 60.1074 181.986 59.706 181.594C59.314 181.202 59.118 180.665 59.118 179.984ZM61.232 178.766C60.644 178.766 60.35 179.172 60.35 179.984C60.35 180.796 60.644 181.202 61.232 181.202C61.82 181.202 62.114 180.796 62.114 179.984C62.114 179.172 61.82 178.766 61.232 178.766ZM75.62 174.286V182H74.024V181.09C73.772 181.407 73.4407 181.659 73.03 181.846C72.6287 182.023 72.1993 182.112 71.742 182.112C71.1353 182.112 70.5893 181.986 70.104 181.734C69.628 181.482 69.25 181.109 68.97 180.614C68.6993 180.119 68.564 179.522 68.564 178.822V174.286H70.146V178.584C70.146 179.275 70.3187 179.807 70.664 180.18C71.0093 180.544 71.4807 180.726 72.078 180.726C72.6753 180.726 73.1467 180.544 73.492 180.18C73.8467 179.807 74.024 179.275 74.024 178.584V174.286H75.62ZM80.5258 182.126C79.9191 182.126 79.3731 182.019 78.8878 181.804C78.4118 181.58 78.0338 181.281 77.7538 180.908C77.4738 180.525 77.3244 180.101 77.3058 179.634H78.9578C78.9858 179.961 79.1398 180.236 79.4198 180.46C79.7091 180.675 80.0684 180.782 80.4978 180.782C80.9458 180.782 81.2911 180.698 81.5338 180.53C81.7858 180.353 81.9118 180.129 81.9118 179.858C81.9118 179.569 81.7718 179.354 81.4918 179.214C81.2211 179.074 80.7871 178.92 80.1898 178.752C79.6111 178.593 79.1398 178.439 78.7758 178.29C78.4118 178.141 78.0944 177.912 77.8238 177.604C77.5624 177.296 77.4318 176.89 77.4318 176.386C77.4318 175.975 77.5531 175.602 77.7958 175.266C78.0384 174.921 78.3838 174.65 78.8318 174.454C79.2891 174.258 79.8118 174.16 80.3998 174.16C81.2771 174.16 81.9818 174.384 82.5138 174.832C83.0551 175.271 83.3444 175.873 83.3818 176.638H81.7858C81.7578 176.293 81.6178 176.017 81.3658 175.812C81.1138 175.607 80.7731 175.504 80.3438 175.504C79.9238 175.504 79.6018 175.583 79.3778 175.742C79.1538 175.901 79.0418 176.111 79.0418 176.372C79.0418 176.577 79.1164 176.75 79.2658 176.89C79.4151 177.03 79.5971 177.142 79.8118 177.226C80.0264 177.301 80.3438 177.399 80.7638 177.52C81.3238 177.669 81.7811 177.823 82.1358 177.982C82.4998 178.131 82.8124 178.355 83.0738 178.654C83.3351 178.953 83.4704 179.349 83.4798 179.844C83.4798 180.283 83.3584 180.675 83.1158 181.02C82.8731 181.365 82.5278 181.636 82.0798 181.832C81.6411 182.028 81.1231 182.126 80.5258 182.126ZM92.2743 177.954C92.2743 178.243 92.2556 178.505 92.2183 178.738H86.3243C86.371 179.354 86.5996 179.849 87.0103 180.222C87.421 180.595 87.925 180.782 88.5223 180.782C89.381 180.782 89.9876 180.423 90.3423 179.704H92.0643C91.831 180.413 91.4063 180.997 90.7903 181.454C90.1836 181.902 89.4276 182.126 88.5223 182.126C87.785 182.126 87.1223 181.963 86.5343 181.636C85.9556 181.3 85.4983 180.833 85.1623 180.236C84.8356 179.629 84.6723 178.929 84.6723 178.136C84.6723 177.343 84.831 176.647 85.1483 176.05C85.475 175.443 85.9276 174.977 86.5063 174.65C87.0943 174.323 87.7663 174.16 88.5223 174.16C89.2503 174.16 89.899 174.319 90.4683 174.636C91.0376 174.953 91.481 175.401 91.7983 175.98C92.1156 176.549 92.2743 177.207 92.2743 177.954ZM90.6083 177.45C90.599 176.862 90.389 176.391 89.9783 176.036C89.5676 175.681 89.059 175.504 88.4523 175.504C87.9016 175.504 87.4303 175.681 87.0383 176.036C86.6463 176.381 86.413 176.853 86.3383 177.45H90.6083ZM93.3129 178.108C93.3129 177.333 93.4716 176.647 93.7889 176.05C94.1156 175.453 94.5543 174.991 95.1049 174.664C95.6649 174.328 96.2856 174.16 96.9669 174.16C97.4709 174.16 97.9656 174.272 98.4509 174.496C98.9456 174.711 99.3376 175 99.6269 175.364V171.64H101.237V182H99.6269V180.838C99.3656 181.211 99.0016 181.519 98.5349 181.762C98.0776 182.005 97.5503 182.126 96.9529 182.126C96.2809 182.126 95.6649 181.958 95.1049 181.622C94.5543 181.277 94.1156 180.801 93.7889 180.194C93.4716 179.578 93.3129 178.883 93.3129 178.108ZM99.6269 178.136C99.6269 177.604 99.5149 177.142 99.2909 176.75C99.0763 176.358 98.7916 176.059 98.4369 175.854C98.0823 175.649 97.6996 175.546 97.2889 175.546C96.8783 175.546 96.4956 175.649 96.1409 175.854C95.7863 176.05 95.4969 176.344 95.2729 176.736C95.0583 177.119 94.9509 177.576 94.9509 178.108C94.9509 178.64 95.0583 179.107 95.2729 179.508C95.4969 179.909 95.7863 180.217 96.1409 180.432C96.5049 180.637 96.8876 180.74 97.2889 180.74C97.6996 180.74 98.0823 180.637 98.4369 180.432C98.7916 180.227 99.0763 179.928 99.2909 179.536C99.5149 179.135 99.6269 178.668 99.6269 178.136Z" fill="white"/>
<defs>
<linearGradient id="paint0_linear_130_476" x1="0" y1="0" x2="374.489" y2="195.998" gradientUnits="userSpaceOnUse">
<stop offset="0.155" stop-color="#33FF00"/>
<stop offset="0.83" stop-color="#0075FF"/>
</linearGradient>
</defs>
</svg>
