<svg width="380" height="201" viewBox="0 0 380 201" fill="none" xmlns="http://www.w3.org/2000/svg">
<rect width="380" height="201" rx="10" fill="url(#paint0_linear_130_461)"/>
<path d="M42.704 29.248L36.56 46H32.48L26.336 29.248H29.936L34.544 42.568L39.128 29.248H42.704ZM50.6225 46.216C49.3425 46.216 48.1905 45.936 47.1665 45.376C46.1425 44.8 45.3345 43.992 44.7425 42.952C44.1665 41.912 43.8785 40.712 43.8785 39.352C43.8785 37.992 44.1745 36.792 44.7665 35.752C45.3745 34.712 46.1985 33.912 47.2385 33.352C48.2785 32.776 49.4385 32.488 50.7185 32.488C51.9985 32.488 53.1585 32.776 54.1985 33.352C55.2385 33.912 56.0545 34.712 56.6465 35.752C57.2545 36.792 57.5585 37.992 57.5585 39.352C57.5585 40.712 57.2465 41.912 56.6225 42.952C56.0145 43.992 55.1825 44.8 54.1265 45.376C53.0865 45.936 51.9185 46.216 50.6225 46.216ZM50.6225 43.288C51.2305 43.288 51.7985 43.144 52.3265 42.856C52.8705 42.552 53.3025 42.104 53.6225 41.512C53.9425 40.92 54.1025 40.2 54.1025 39.352C54.1025 38.088 53.7665 37.12 53.0945 36.448C52.4385 35.76 51.6305 35.416 50.6705 35.416C49.7105 35.416 48.9025 35.76 48.2465 36.448C47.6065 37.12 47.2865 38.088 47.2865 39.352C47.2865 40.616 47.5985 41.592 48.2225 42.28C48.8625 42.952 49.6625 43.288 50.6225 43.288ZM72.5752 32.704V46H69.1912V44.32C68.7592 44.896 68.1912 45.352 67.4872 45.688C66.7992 46.008 66.0472 46.168 65.2312 46.168C64.1912 46.168 63.2712 45.952 62.4712 45.52C61.6712 45.072 61.0392 44.424 60.5752 43.576C60.1272 42.712 59.9032 41.688 59.9032 40.504V32.704H63.2632V40.024C63.2632 41.08 63.5272 41.896 64.0552 42.472C64.5832 43.032 65.3032 43.312 66.2152 43.312C67.1432 43.312 67.8712 43.032 68.3992 42.472C68.9272 41.896 69.1912 41.08 69.1912 40.024V32.704H72.5752ZM75.0264 39.352C75.0264 37.976 75.3064 36.776 75.8664 35.752C76.4264 34.712 77.2024 33.912 78.1944 33.352C79.1864 32.776 80.3224 32.488 81.6024 32.488C83.2504 32.488 84.6104 32.904 85.6824 33.736C86.7704 34.552 87.4984 35.704 87.8664 37.192H84.2424C84.0504 36.616 83.7224 36.168 83.2584 35.848C82.8104 35.512 82.2504 35.344 81.5784 35.344C80.6184 35.344 79.8584 35.696 79.2984 36.4C78.7384 37.088 78.4584 38.072 78.4584 39.352C78.4584 40.616 78.7384 41.6 79.2984 42.304C79.8584 42.992 80.6184 43.336 81.5784 43.336C82.9384 43.336 83.8264 42.728 84.2424 41.512H87.8664C87.4984 42.952 86.7704 44.096 85.6824 44.944C84.5944 45.792 83.2344 46.216 81.6024 46.216C80.3224 46.216 79.1864 45.936 78.1944 45.376C77.2024 44.8 76.4264 44 75.8664 42.976C75.3064 41.936 75.0264 40.728 75.0264 39.352ZM97.8159 32.512C98.8239 32.512 99.7199 32.736 100.504 33.184C101.288 33.616 101.896 34.264 102.328 35.128C102.776 35.976 103 37 103 38.2V46H99.6399V38.656C99.6399 37.6 99.3759 36.792 98.8479 36.232C98.3199 35.656 97.5999 35.368 96.6879 35.368C95.7599 35.368 95.0239 35.656 94.4799 36.232C93.9519 36.792 93.6879 37.6 93.6879 38.656V46H90.3279V28.24H93.6879V34.36C94.1199 33.784 94.6959 33.336 95.4159 33.016C96.1359 32.68 96.9359 32.512 97.8159 32.512ZM118.555 39.064C118.555 39.544 118.523 39.976 118.459 40.36H108.739C108.819 41.32 109.155 42.072 109.747 42.616C110.339 43.16 111.067 43.432 111.931 43.432C113.179 43.432 114.067 42.896 114.595 41.824H118.219C117.835 43.104 117.099 44.16 116.011 44.992C114.923 45.808 113.587 46.216 112.003 46.216C110.723 46.216 109.571 45.936 108.547 45.376C107.539 44.8 106.747 43.992 106.171 42.952C105.611 41.912 105.331 40.712 105.331 39.352C105.331 37.976 105.611 36.768 106.171 35.728C106.731 34.688 107.515 33.888 108.523 33.328C109.531 32.768 110.691 32.488 112.003 32.488C113.267 32.488 114.395 32.76 115.387 33.304C116.395 33.848 117.171 34.624 117.715 35.632C118.275 36.624 118.555 37.768 118.555 39.064ZM115.075 38.104C115.059 37.24 114.747 36.552 114.139 36.04C113.531 35.512 112.787 35.248 111.907 35.248C111.075 35.248 110.371 35.504 109.795 36.016C109.235 36.512 108.891 37.208 108.763 38.104H115.075ZM124.368 34.768C124.8 34.064 125.36 33.512 126.048 33.112C126.752 32.712 127.552 32.512 128.448 32.512V36.04H127.56C126.504 36.04 125.704 36.288 125.16 36.784C124.632 37.28 124.368 38.144 124.368 39.376V46H121.008V32.704H124.368V34.768Z" fill="white"/>
<path fill-rule="evenodd" clip-rule="evenodd" d="M351.647 37.2948L353.718 39.3648C355.357 40.9748 356.249 43.1598 356.249 45.4598C356.278 47.7598 355.386 49.9476 353.776 51.5835C353.756 51.6046 353.737 51.6231 353.718 51.6417C353.708 51.6509 353.699 51.6602 353.689 51.6698L351.647 53.711C350.842 54.516 350.382 55.6085 350.382 56.7614V59.7198C350.382 64.4923 346.499 68.3764 341.725 68.3764H338.763C337.612 68.3764 336.519 68.8335 335.714 69.6385L333.643 71.7085C331.946 73.4076 329.732 74.2385 327.517 74.2385C325.303 74.2385 323.088 73.4076 321.391 71.7401L319.292 69.6385C318.487 68.8335 317.394 68.3764 316.243 68.3764H313.281C308.507 68.3764 304.624 64.4923 304.624 59.7198V56.7614C304.624 55.6085 304.164 54.516 303.359 53.6823L301.288 51.641C297.923 48.2801 297.894 42.786 301.259 39.3964L303.359 37.2948C304.164 36.4898 304.624 35.3973 304.624 34.2185V31.286C304.624 26.5135 308.507 22.6351 313.281 22.6351H316.243C317.394 22.6351 318.487 22.1723 319.292 21.3673L321.363 19.2973C324.728 15.9076 330.221 15.9076 333.615 19.2714L335.714 21.3673C336.519 22.1723 337.612 22.6351 338.763 22.6351H341.725C346.499 22.6351 350.382 26.5135 350.382 31.286V34.2501C350.382 35.3973 350.842 36.4898 351.647 37.2948ZM320.097 55.4073C320.787 55.4073 321.42 55.1485 321.88 54.6598L336.663 39.8851C337.641 38.9076 337.641 37.2948 336.663 36.3173C335.685 35.3426 334.103 35.3426 333.126 36.3173L318.343 51.0948C317.365 52.0723 317.365 53.6823 318.343 54.6598C318.803 55.1485 319.436 55.4073 320.097 55.4073ZM332.378 52.8773C332.378 54.286 333.499 55.4073 334.909 55.4073C336.289 55.4073 337.411 54.286 337.411 52.8773C337.411 51.5001 336.289 50.376 334.909 50.376C333.499 50.376 332.378 51.5001 332.378 52.8773ZM320.126 35.5985C321.506 35.5985 322.628 36.7198 322.628 38.0998C322.628 39.5114 321.506 40.6298 320.126 40.6298C318.745 40.6298 317.595 39.5114 317.595 38.0998C317.595 36.7198 318.745 35.5985 320.126 35.5985Z" fill="white"/>
<path d="M31.728 104.456V94.28H49.456V141H38.064V104.456H31.728ZM56.9425 117C56.9425 109.661 58.3505 103.88 61.1665 99.656C64.0252 95.432 68.6118 93.32 74.9265 93.32C81.2412 93.32 85.8065 95.432 88.6225 99.656C91.4812 103.88 92.9105 109.661 92.9105 117C92.9105 124.424 91.4812 130.248 88.6225 134.472C85.8065 138.696 81.2412 140.808 74.9265 140.808C68.6118 140.808 64.0252 138.696 61.1665 134.472C58.3505 130.248 56.9425 124.424 56.9425 117ZM82.1585 117C82.1585 112.691 81.6892 109.384 80.7505 107.08C79.8118 104.733 77.8705 103.56 74.9265 103.56C71.9825 103.56 70.0412 104.733 69.1025 107.08C68.1638 109.384 67.6945 112.691 67.6945 117C67.6945 119.901 67.8652 122.312 68.2065 124.232C68.5478 126.109 69.2305 127.645 70.2545 128.84C71.3212 129.992 72.8785 130.568 74.9265 130.568C76.9745 130.568 78.5105 129.992 79.5345 128.84C80.6012 127.645 81.3052 126.109 81.6465 124.232C81.9878 122.312 82.1585 119.901 82.1585 117ZM97.7965 106.056C97.7965 102.6 98.7778 99.9333 100.741 98.056C102.746 96.1787 105.327 95.24 108.485 95.24C111.642 95.24 114.202 96.1787 116.165 98.056C118.127 99.9333 119.109 102.6 119.109 106.056C119.109 109.512 118.127 112.179 116.165 114.056C114.202 115.933 111.642 116.872 108.485 116.872C105.327 116.872 102.746 115.933 100.741 114.056C98.7778 112.179 97.7965 109.512 97.7965 106.056ZM141.253 95.944L116.613 141H106.053L130.693 95.944H141.253ZM108.421 101.64C106.373 101.64 105.349 103.112 105.349 106.056C105.349 108.957 106.373 110.408 108.421 110.408C109.402 110.408 110.17 110.045 110.725 109.32C111.279 108.595 111.557 107.507 111.557 106.056C111.557 103.112 110.511 101.64 108.421 101.64ZM128.261 130.888C128.261 127.432 129.242 124.765 131.205 122.888C133.167 121.011 135.727 120.072 138.885 120.072C142.042 120.072 144.602 121.011 146.565 122.888C148.527 124.765 149.509 127.432 149.509 130.888C149.509 134.344 148.527 137.011 146.565 138.888C144.602 140.765 142.042 141.704 138.885 141.704C135.727 141.704 133.167 140.765 131.205 138.888C129.242 137.011 128.261 134.344 128.261 130.888ZM138.821 126.472C137.839 126.472 137.071 126.835 136.517 127.56C136.005 128.285 135.749 129.395 135.749 130.888C135.749 133.789 136.773 135.24 138.821 135.24C139.802 135.24 140.57 134.877 141.125 134.152C141.679 133.427 141.957 132.339 141.957 130.888C141.957 129.437 141.679 128.349 141.125 127.624C140.57 126.856 139.802 126.472 138.821 126.472Z" fill="white"/>
<line x1="32.5" y1="160.5" x2="225.503" y2="160.5" stroke="white" stroke-width="5" stroke-linecap="round"/>
<line x1="32.5" y1="160.5" x2="197.5" y2="160.5" stroke="#FDC55E" stroke-width="5" stroke-linecap="round"/>
<path d="M32.828 179.228C32.9213 179.695 33.122 180.049 33.43 180.292C33.738 180.535 34.1533 180.656 34.676 180.656C35.3387 180.656 35.824 180.395 36.132 179.872C36.44 179.349 36.594 178.458 36.594 177.198C36.37 177.515 36.0527 177.763 35.642 177.94C35.2407 178.108 34.802 178.192 34.326 178.192C33.7193 178.192 33.1687 178.071 32.674 177.828C32.1793 177.576 31.7873 177.207 31.498 176.722C31.218 176.227 31.078 175.63 31.078 174.93C31.078 173.903 31.3767 173.087 31.974 172.48C32.5807 171.864 33.4113 171.556 34.466 171.556C35.7353 171.556 36.636 171.981 37.168 172.83C37.7093 173.67 37.98 174.963 37.98 176.708C37.98 177.912 37.8773 178.897 37.672 179.662C37.476 180.427 37.1307 181.006 36.636 181.398C36.1413 181.79 35.4553 181.986 34.578 181.986C33.5793 181.986 32.8093 181.725 32.268 181.202C31.7267 180.679 31.4233 180.021 31.358 179.228H32.828ZM34.606 176.848C35.166 176.848 35.6047 176.675 35.922 176.33C36.2487 175.975 36.412 175.509 36.412 174.93C36.412 174.286 36.2393 173.787 35.894 173.432C35.558 173.068 35.096 172.886 34.508 172.886C33.92 172.886 33.4533 173.073 33.108 173.446C32.772 173.81 32.604 174.291 32.604 174.888C32.604 175.457 32.7673 175.929 33.094 176.302C33.43 176.666 33.934 176.848 34.606 176.848ZM39.7267 176.764C39.7267 175.149 39.9974 173.889 40.5387 172.984C41.0894 172.069 42.0321 171.612 43.3667 171.612C44.7014 171.612 45.6394 172.069 46.1807 172.984C46.7314 173.889 47.0067 175.149 47.0067 176.764C47.0067 178.397 46.7314 179.676 46.1807 180.6C45.6394 181.515 44.7014 181.972 43.3667 181.972C42.0321 181.972 41.0894 181.515 40.5387 180.6C39.9974 179.676 39.7267 178.397 39.7267 176.764ZM45.4387 176.764C45.4387 176.008 45.3874 175.369 45.2847 174.846C45.1914 174.323 44.9954 173.899 44.6967 173.572C44.3981 173.236 43.9547 173.068 43.3667 173.068C42.7787 173.068 42.3354 173.236 42.0367 173.572C41.7381 173.899 41.5374 174.323 41.4347 174.846C41.3414 175.369 41.2947 176.008 41.2947 176.764C41.2947 177.548 41.3414 178.206 41.4347 178.738C41.5281 179.27 41.7241 179.699 42.0227 180.026C42.3307 180.353 42.7787 180.516 43.3667 180.516C43.9547 180.516 44.3981 180.353 44.6967 180.026C45.0047 179.699 45.2054 179.27 45.2987 178.738C45.3921 178.206 45.4387 177.548 45.4387 176.764ZM48.4435 174.258C48.4435 173.577 48.6395 173.045 49.0315 172.662C49.4328 172.27 49.9461 172.074 50.5715 172.074C51.1968 172.074 51.7055 172.27 52.0975 172.662C52.4988 173.045 52.6995 173.577 52.6995 174.258C52.6995 174.939 52.4988 175.476 52.0975 175.868C51.7055 176.26 51.1968 176.456 50.5715 176.456C49.9461 176.456 49.4328 176.26 49.0315 175.868C48.6395 175.476 48.4435 174.939 48.4435 174.258ZM56.9835 172.256L51.3975 182H49.8295L55.4155 172.256H56.9835ZM50.5715 173.04C49.9835 173.04 49.6895 173.446 49.6895 174.258C49.6895 175.079 49.9835 175.49 50.5715 175.49C50.8515 175.49 51.0661 175.392 51.2155 175.196C51.3741 174.991 51.4535 174.678 51.4535 174.258C51.4535 173.446 51.1595 173.04 50.5715 173.04ZM54.1415 179.984C54.1415 179.303 54.3375 178.771 54.7295 178.388C55.1308 177.996 55.6441 177.8 56.2695 177.8C56.8855 177.8 57.3895 177.996 57.7815 178.388C58.1828 178.771 58.3835 179.303 58.3835 179.984C58.3835 180.665 58.1828 181.202 57.7815 181.594C57.3895 181.986 56.8855 182.182 56.2695 182.182C55.6441 182.182 55.1308 181.986 54.7295 181.594C54.3375 181.202 54.1415 180.665 54.1415 179.984ZM56.2555 178.766C55.6675 178.766 55.3735 179.172 55.3735 179.984C55.3735 180.796 55.6675 181.202 56.2555 181.202C56.8435 181.202 57.1375 180.796 57.1375 179.984C57.1375 179.172 56.8435 178.766 56.2555 178.766ZM70.6434 174.286V182H69.0474V181.09C68.7954 181.407 68.4641 181.659 68.0534 181.846C67.6521 182.023 67.2228 182.112 66.7654 182.112C66.1588 182.112 65.6128 181.986 65.1274 181.734C64.6514 181.482 64.2734 181.109 63.9934 180.614C63.7228 180.119 63.5874 179.522 63.5874 178.822V174.286H65.1694V178.584C65.1694 179.275 65.3421 179.807 65.6874 180.18C66.0328 180.544 66.5041 180.726 67.1014 180.726C67.6988 180.726 68.1701 180.544 68.5154 180.18C68.8701 179.807 69.0474 179.275 69.0474 178.584V174.286H70.6434ZM75.5492 182.126C74.9426 182.126 74.3966 182.019 73.9112 181.804C73.4352 181.58 73.0572 181.281 72.7772 180.908C72.4972 180.525 72.3479 180.101 72.3292 179.634H73.9812C74.0092 179.961 74.1632 180.236 74.4432 180.46C74.7326 180.675 75.0919 180.782 75.5212 180.782C75.9692 180.782 76.3146 180.698 76.5572 180.53C76.8092 180.353 76.9352 180.129 76.9352 179.858C76.9352 179.569 76.7952 179.354 76.5152 179.214C76.2446 179.074 75.8106 178.92 75.2132 178.752C74.6346 178.593 74.1632 178.439 73.7992 178.29C73.4352 178.141 73.1179 177.912 72.8472 177.604C72.5859 177.296 72.4552 176.89 72.4552 176.386C72.4552 175.975 72.5766 175.602 72.8192 175.266C73.0619 174.921 73.4072 174.65 73.8552 174.454C74.3126 174.258 74.8352 174.16 75.4232 174.16C76.3006 174.16 77.0052 174.384 77.5372 174.832C78.0786 175.271 78.3679 175.873 78.4052 176.638H76.8092C76.7812 176.293 76.6412 176.017 76.3892 175.812C76.1372 175.607 75.7966 175.504 75.3672 175.504C74.9472 175.504 74.6252 175.583 74.4012 175.742C74.1772 175.901 74.0652 176.111 74.0652 176.372C74.0652 176.577 74.1399 176.75 74.2892 176.89C74.4386 177.03 74.6206 177.142 74.8352 177.226C75.0499 177.301 75.3672 177.399 75.7872 177.52C76.3472 177.669 76.8046 177.823 77.1592 177.982C77.5232 178.131 77.8359 178.355 78.0972 178.654C78.3586 178.953 78.4939 179.349 78.5032 179.844C78.5032 180.283 78.3819 180.675 78.1392 181.02C77.8966 181.365 77.5512 181.636 77.1032 181.832C76.6646 182.028 76.1466 182.126 75.5492 182.126ZM87.2977 177.954C87.2977 178.243 87.2791 178.505 87.2417 178.738H81.3477C81.3944 179.354 81.6231 179.849 82.0337 180.222C82.4444 180.595 82.9484 180.782 83.5457 180.782C84.4044 180.782 85.0111 180.423 85.3657 179.704H87.0877C86.8544 180.413 86.4297 180.997 85.8137 181.454C85.2071 181.902 84.4511 182.126 83.5457 182.126C82.8084 182.126 82.1457 181.963 81.5577 181.636C80.9791 181.3 80.5217 180.833 80.1857 180.236C79.8591 179.629 79.6957 178.929 79.6957 178.136C79.6957 177.343 79.8544 176.647 80.1717 176.05C80.4984 175.443 80.9511 174.977 81.5297 174.65C82.1177 174.323 82.7897 174.16 83.5457 174.16C84.2737 174.16 84.9224 174.319 85.4917 174.636C86.0611 174.953 86.5044 175.401 86.8217 175.98C87.1391 176.549 87.2977 177.207 87.2977 177.954ZM85.6317 177.45C85.6224 176.862 85.4124 176.391 85.0017 176.036C84.5911 175.681 84.0824 175.504 83.4757 175.504C82.9251 175.504 82.4537 175.681 82.0617 176.036C81.6697 176.381 81.4364 176.853 81.3617 177.45H85.6317ZM88.3364 178.108C88.3364 177.333 88.495 176.647 88.8124 176.05C89.139 175.453 89.5777 174.991 90.1284 174.664C90.6884 174.328 91.309 174.16 91.9904 174.16C92.4944 174.16 92.989 174.272 93.4744 174.496C93.969 174.711 94.361 175 94.6504 175.364V171.64H96.2604V182H94.6504V180.838C94.389 181.211 94.025 181.519 93.5584 181.762C93.101 182.005 92.5737 182.126 91.9764 182.126C91.3044 182.126 90.6884 181.958 90.1284 181.622C89.5777 181.277 89.139 180.801 88.8124 180.194C88.495 179.578 88.3364 178.883 88.3364 178.108ZM94.6504 178.136C94.6504 177.604 94.5384 177.142 94.3144 176.75C94.0997 176.358 93.815 176.059 93.4604 175.854C93.1057 175.649 92.723 175.546 92.3124 175.546C91.9017 175.546 91.519 175.649 91.1644 175.854C90.8097 176.05 90.5204 176.344 90.2964 176.736C90.0817 177.119 89.9744 177.576 89.9744 178.108C89.9744 178.64 90.0817 179.107 90.2964 179.508C90.5204 179.909 90.8097 180.217 91.1644 180.432C91.5284 180.637 91.911 180.74 92.3124 180.74C92.723 180.74 93.1057 180.637 93.4604 180.432C93.815 180.227 94.0997 179.928 94.3144 179.536C94.5384 179.135 94.6504 178.668 94.6504 178.136Z" fill="white"/>
<defs>
<linearGradient id="paint0_linear_130_461" x1="0" y1="0" x2="374.489" y2="195.998" gradientUnits="userSpaceOnUse">
<stop offset="0.155" stop-color="#FF4D00"/>
<stop offset="0.83" stop-color="#FF00D6"/>
</linearGradient>
</defs>
</svg>
