<svg width="380" height="201" viewBox="0 0 380 201" fill="none" xmlns="http://www.w3.org/2000/svg">
<rect width="380" height="201" rx="10" fill="url(#paint0_linear_130_446)"/>
<path d="M42.704 34.248L36.56 51H32.48L26.336 34.248H29.936L34.544 47.568L39.128 34.248H42.704ZM50.6225 51.216C49.3425 51.216 48.1905 50.936 47.1665 50.376C46.1425 49.8 45.3345 48.992 44.7425 47.952C44.1665 46.912 43.8785 45.712 43.8785 44.352C43.8785 42.992 44.1745 41.792 44.7665 40.752C45.3745 39.712 46.1985 38.912 47.2385 38.352C48.2785 37.776 49.4385 37.488 50.7185 37.488C51.9985 37.488 53.1585 37.776 54.1985 38.352C55.2385 38.912 56.0545 39.712 56.6465 40.752C57.2545 41.792 57.5585 42.992 57.5585 44.352C57.5585 45.712 57.2465 46.912 56.6225 47.952C56.0145 48.992 55.1825 49.8 54.1265 50.376C53.0865 50.936 51.9185 51.216 50.6225 51.216ZM50.6225 48.288C51.2305 48.288 51.7985 48.144 52.3265 47.856C52.8705 47.552 53.3025 47.104 53.6225 46.512C53.9425 45.92 54.1025 45.2 54.1025 44.352C54.1025 43.088 53.7665 42.12 53.0945 41.448C52.4385 40.76 51.6305 40.416 50.6705 40.416C49.7105 40.416 48.9025 40.76 48.2465 41.448C47.6065 42.12 47.2865 43.088 47.2865 44.352C47.2865 45.616 47.5985 46.592 48.2225 47.28C48.8625 47.952 49.6625 48.288 50.6225 48.288ZM72.5752 37.704V51H69.1912V49.32C68.7592 49.896 68.1912 50.352 67.4872 50.688C66.7992 51.008 66.0472 51.168 65.2312 51.168C64.1912 51.168 63.2712 50.952 62.4712 50.52C61.6712 50.072 61.0392 49.424 60.5752 48.576C60.1272 47.712 59.9032 46.688 59.9032 45.504V37.704H63.2632V45.024C63.2632 46.08 63.5272 46.896 64.0552 47.472C64.5832 48.032 65.3032 48.312 66.2152 48.312C67.1432 48.312 67.8712 48.032 68.3992 47.472C68.9272 46.896 69.1912 46.08 69.1912 45.024V37.704H72.5752ZM75.0264 44.352C75.0264 42.976 75.3064 41.776 75.8664 40.752C76.4264 39.712 77.2024 38.912 78.1944 38.352C79.1864 37.776 80.3224 37.488 81.6024 37.488C83.2504 37.488 84.6104 37.904 85.6824 38.736C86.7704 39.552 87.4984 40.704 87.8664 42.192H84.2424C84.0504 41.616 83.7224 41.168 83.2584 40.848C82.8104 40.512 82.2504 40.344 81.5784 40.344C80.6184 40.344 79.8584 40.696 79.2984 41.4C78.7384 42.088 78.4584 43.072 78.4584 44.352C78.4584 45.616 78.7384 46.6 79.2984 47.304C79.8584 47.992 80.6184 48.336 81.5784 48.336C82.9384 48.336 83.8264 47.728 84.2424 46.512H87.8664C87.4984 47.952 86.7704 49.096 85.6824 49.944C84.5944 50.792 83.2344 51.216 81.6024 51.216C80.3224 51.216 79.1864 50.936 78.1944 50.376C77.2024 49.8 76.4264 49 75.8664 47.976C75.3064 46.936 75.0264 45.728 75.0264 44.352ZM97.8159 37.512C98.8239 37.512 99.7199 37.736 100.504 38.184C101.288 38.616 101.896 39.264 102.328 40.128C102.776 40.976 103 42 103 43.2V51H99.6399V43.656C99.6399 42.6 99.3759 41.792 98.8479 41.232C98.3199 40.656 97.5999 40.368 96.6879 40.368C95.7599 40.368 95.0239 40.656 94.4799 41.232C93.9519 41.792 93.6879 42.6 93.6879 43.656V51H90.3279V33.24H93.6879V39.36C94.1199 38.784 94.6959 38.336 95.4159 38.016C96.1359 37.68 96.9359 37.512 97.8159 37.512ZM118.555 44.064C118.555 44.544 118.523 44.976 118.459 45.36H108.739C108.819 46.32 109.155 47.072 109.747 47.616C110.339 48.16 111.067 48.432 111.931 48.432C113.179 48.432 114.067 47.896 114.595 46.824H118.219C117.835 48.104 117.099 49.16 116.011 49.992C114.923 50.808 113.587 51.216 112.003 51.216C110.723 51.216 109.571 50.936 108.547 50.376C107.539 49.8 106.747 48.992 106.171 47.952C105.611 46.912 105.331 45.712 105.331 44.352C105.331 42.976 105.611 41.768 106.171 40.728C106.731 39.688 107.515 38.888 108.523 38.328C109.531 37.768 110.691 37.488 112.003 37.488C113.267 37.488 114.395 37.76 115.387 38.304C116.395 38.848 117.171 39.624 117.715 40.632C118.275 41.624 118.555 42.768 118.555 44.064ZM115.075 43.104C115.059 42.24 114.747 41.552 114.139 41.04C113.531 40.512 112.787 40.248 111.907 40.248C111.075 40.248 110.371 40.504 109.795 41.016C109.235 41.512 108.891 42.208 108.763 43.104H115.075ZM124.368 39.768C124.8 39.064 125.36 38.512 126.048 38.112C126.752 37.712 127.552 37.512 128.448 37.512V41.04H127.56C126.504 41.04 125.704 41.288 125.16 41.784C124.632 42.28 124.368 43.144 124.368 44.376V51H121.008V37.704H124.368V39.768Z" fill="white"/>
<path fill-rule="evenodd" clip-rule="evenodd" d="M349.647 36.2947L351.718 38.3647C353.357 39.9747 354.249 42.1597 354.249 44.4597C354.278 46.7597 353.386 48.9476 351.776 50.5835C351.756 50.6046 351.737 50.6231 351.718 50.6416C351.708 50.6509 351.699 50.6602 351.689 50.6697L349.647 52.711C348.842 53.516 348.382 54.6085 348.382 55.7614V58.7197C348.382 63.4922 344.499 67.3764 339.725 67.3764H336.763C335.612 67.3764 334.519 67.8335 333.714 68.6385L331.643 70.7085C329.946 72.4076 327.732 73.2385 325.517 73.2385C323.303 73.2385 321.088 72.4076 319.391 70.7401L317.292 68.6385C316.487 67.8335 315.394 67.3764 314.243 67.3764H311.281C306.507 67.3764 302.624 63.4922 302.624 58.7197V55.7614C302.624 54.6085 302.164 53.516 301.359 52.6822L299.288 50.641C295.923 47.2801 295.894 41.786 299.259 38.3964L301.359 36.2947C302.164 35.4897 302.624 34.3972 302.624 33.2185V30.286C302.624 25.5135 306.507 21.6351 311.281 21.6351H314.243C315.394 21.6351 316.487 21.1722 317.292 20.3672L319.363 18.2972C322.728 14.9076 328.221 14.9076 331.615 18.2714L333.714 20.3672C334.519 21.1722 335.612 21.6351 336.763 21.6351H339.725C344.499 21.6351 348.382 25.5135 348.382 30.286V33.2501C348.382 34.3972 348.842 35.4897 349.647 36.2947ZM318.097 54.4072C318.787 54.4072 319.42 54.1485 319.88 53.6597L334.663 38.8851C335.641 37.9076 335.641 36.2947 334.663 35.3172C333.685 34.3426 332.103 34.3426 331.126 35.3172L316.343 50.0947C315.365 51.0722 315.365 52.6822 316.343 53.6597C316.803 54.1485 317.436 54.4072 318.097 54.4072ZM330.378 51.8772C330.378 53.286 331.5 54.4072 332.909 54.4072C334.289 54.4072 335.411 53.286 335.411 51.8772C335.411 50.5001 334.289 49.376 332.909 49.376C331.5 49.376 330.378 50.5001 330.378 51.8772ZM318.126 34.5985C319.506 34.5985 320.628 35.7197 320.628 37.0997C320.628 38.5114 319.506 39.6297 318.126 39.6297C316.745 39.6297 315.595 38.5114 315.595 37.0997C315.595 35.7197 316.745 34.5985 318.126 34.5985Z" fill="white"/>
<path d="M55.984 111.888C55.6427 110.309 55.0453 109.136 54.192 108.368C53.3387 107.557 52.1227 107.152 50.544 107.152C48.112 107.152 46.3627 108.219 45.296 110.352C44.2293 112.443 43.6747 115.771 43.632 120.336C44.5707 118.843 45.9147 117.669 47.664 116.816C49.456 115.963 51.4187 115.536 53.552 115.536C57.7333 115.536 61.0827 116.859 63.6 119.504C66.16 122.149 67.44 125.84 67.44 130.576C67.44 133.691 66.8 136.421 65.52 138.768C64.2827 141.115 62.448 142.949 60.016 144.272C57.6267 145.595 54.7893 146.256 51.504 146.256C44.9333 146.256 40.368 144.208 37.808 140.112C35.248 135.973 33.968 130.043 33.968 122.32C33.968 114.213 35.312 108.197 38 104.272C40.7307 100.304 45.0827 98.32 51.056 98.32C54.256 98.32 56.944 98.96 59.12 100.24C61.3387 101.477 63.0027 103.12 64.112 105.168C65.264 107.216 65.9467 109.456 66.16 111.888H55.984ZM50.928 124.176C49.0933 124.176 47.5573 124.731 46.32 125.84C45.1253 126.907 44.528 128.443 44.528 130.448C44.528 132.496 45.0827 134.096 46.192 135.248C47.344 136.4 48.9653 136.976 51.056 136.976C52.9333 136.976 54.4053 136.421 55.472 135.312C56.5813 134.16 57.136 132.603 57.136 130.64C57.136 128.635 56.6027 127.056 55.536 125.904C54.4693 124.752 52.9333 124.176 50.928 124.176ZM74.014 112.464C74.1847 107.899 75.678 104.379 78.494 101.904C81.31 99.4293 85.1287 98.192 89.95 98.192C93.15 98.192 95.8807 98.7467 98.142 99.856C100.446 100.965 102.174 102.48 103.326 104.4C104.521 106.32 105.118 108.475 105.118 110.864C105.118 113.68 104.414 115.984 103.006 117.776C101.598 119.525 99.9553 120.72 98.078 121.36V121.616C100.51 122.427 102.43 123.771 103.838 125.648C105.246 127.525 105.95 129.936 105.95 132.88C105.95 135.525 105.331 137.872 104.094 139.92C102.899 141.925 101.129 143.504 98.782 144.656C96.478 145.808 93.726 146.384 90.526 146.384C85.406 146.384 81.31 145.125 78.238 142.608C75.2087 140.091 73.6087 136.293 73.438 131.216H84.062C84.1047 133.093 84.638 134.587 85.662 135.696C86.686 136.763 88.1793 137.296 90.142 137.296C91.806 137.296 93.086 136.827 93.982 135.888C94.9207 134.907 95.39 133.627 95.39 132.048C95.39 130 94.7287 128.528 93.406 127.632C92.126 126.693 90.0567 126.224 87.198 126.224H85.15V117.328H87.198C89.374 117.328 91.1233 116.965 92.446 116.24C93.8113 115.472 94.494 114.128 94.494 112.208C94.494 110.672 94.0673 109.477 93.214 108.624C92.3607 107.771 91.1873 107.344 89.694 107.344C88.0727 107.344 86.8567 107.835 86.046 108.816C85.278 109.797 84.83 111.013 84.702 112.464H74.014ZM111.484 111.056C111.484 107.6 112.465 104.933 114.428 103.056C116.433 101.179 119.015 100.24 122.172 100.24C125.329 100.24 127.889 101.179 129.852 103.056C131.815 104.933 132.796 107.6 132.796 111.056C132.796 114.512 131.815 117.179 129.852 119.056C127.889 120.933 125.329 121.872 122.172 121.872C119.015 121.872 116.433 120.933 114.428 119.056C112.465 117.179 111.484 114.512 111.484 111.056ZM154.94 100.944L130.3 146H119.74L144.38 100.944H154.94ZM122.108 106.64C120.06 106.64 119.036 108.112 119.036 111.056C119.036 113.957 120.06 115.408 122.108 115.408C123.089 115.408 123.857 115.045 124.412 114.32C124.967 113.595 125.244 112.507 125.244 111.056C125.244 108.112 124.199 106.64 122.108 106.64ZM141.948 135.888C141.948 132.432 142.929 129.765 144.892 127.888C146.855 126.011 149.415 125.072 152.572 125.072C155.729 125.072 158.289 126.011 160.252 127.888C162.215 129.765 163.196 132.432 163.196 135.888C163.196 139.344 162.215 142.011 160.252 143.888C158.289 145.765 155.729 146.704 152.572 146.704C149.415 146.704 146.855 145.765 144.892 143.888C142.929 142.011 141.948 139.344 141.948 135.888ZM152.508 131.472C151.527 131.472 150.759 131.835 150.204 132.56C149.692 133.285 149.436 134.395 149.436 135.888C149.436 138.789 150.46 140.24 152.508 140.24C153.489 140.24 154.257 139.877 154.812 139.152C155.367 138.427 155.644 137.339 155.644 135.888C155.644 134.437 155.367 133.349 154.812 132.624C154.257 131.856 153.489 131.472 152.508 131.472Z" fill="white"/>
<line x1="32.5" y1="165.5" x2="225.503" y2="165.5" stroke="white" stroke-width="5" stroke-linecap="round"/>
<line x1="32.5" y1="165.5" x2="143.5" y2="165.5" stroke="#FDC55E" stroke-width="5" stroke-linecap="round"/>
<path d="M36.328 179.16C36.2253 178.731 36.0387 178.409 35.768 178.194C35.4973 177.979 35.1193 177.872 34.634 177.872C33.8967 177.872 33.346 178.157 32.982 178.726C32.618 179.286 32.4267 180.219 32.408 181.526C32.6507 181.115 33.0053 180.798 33.472 180.574C33.9387 180.35 34.4427 180.238 34.984 180.238C35.6 180.238 36.1413 180.373 36.608 180.644C37.084 180.905 37.4527 181.288 37.714 181.792C37.9847 182.296 38.12 182.898 38.12 183.598C38.12 184.251 37.9893 184.835 37.728 185.348C37.476 185.861 37.098 186.267 36.594 186.566C36.09 186.855 35.4833 187 34.774 187C33.8127 187 33.0567 186.79 32.506 186.37C31.9647 185.941 31.582 185.339 31.358 184.564C31.1433 183.789 31.036 182.823 31.036 181.666C31.036 178.25 32.24 176.542 34.648 176.542C35.5813 176.542 36.314 176.794 36.846 177.298C37.3873 177.802 37.7047 178.423 37.798 179.16H36.328ZM34.634 181.582C34.0647 181.582 33.5793 181.755 33.178 182.1C32.786 182.436 32.59 182.926 32.59 183.57C32.59 184.214 32.772 184.727 33.136 185.11C33.5093 185.483 34.0273 185.67 34.69 185.67C35.278 185.67 35.74 185.488 36.076 185.124C36.4213 184.76 36.594 184.275 36.594 183.668C36.594 183.033 36.426 182.529 36.09 182.156C35.7633 181.773 35.278 181.582 34.634 181.582ZM46.4024 178.166H41.7124V180.952C41.9084 180.691 42.1978 180.471 42.5804 180.294C42.9724 180.117 43.3878 180.028 43.8264 180.028C44.6104 180.028 45.2451 180.196 45.7304 180.532C46.2251 180.868 46.5751 181.293 46.7804 181.806C46.9951 182.319 47.1024 182.861 47.1024 183.43C47.1024 184.121 46.9671 184.737 46.6964 185.278C46.4351 185.81 46.0384 186.23 45.5064 186.538C44.9838 186.846 44.3398 187 43.5744 187C42.5571 187 41.7404 186.748 41.1244 186.244C40.5084 185.74 40.1398 185.073 40.0184 184.242H41.5724C41.6751 184.681 41.9038 185.031 42.2584 185.292C42.6131 185.544 43.0564 185.67 43.5884 185.67C44.2511 185.67 44.7458 185.469 45.0724 185.068C45.4084 184.667 45.5764 184.135 45.5764 183.472C45.5764 182.8 45.4084 182.287 45.0724 181.932C44.7364 181.568 44.2418 181.386 43.5884 181.386C43.1311 181.386 42.7438 181.503 42.4264 181.736C42.1184 181.96 41.8944 182.268 41.7544 182.66H40.2424V176.766H46.4024V178.166ZM48.5118 179.258C48.5118 178.577 48.7078 178.045 49.0998 177.662C49.5012 177.27 50.0145 177.074 50.6398 177.074C51.2652 177.074 51.7738 177.27 52.1658 177.662C52.5672 178.045 52.7678 178.577 52.7678 179.258C52.7678 179.939 52.5672 180.476 52.1658 180.868C51.7738 181.26 51.2652 181.456 50.6398 181.456C50.0145 181.456 49.5012 181.26 49.0998 180.868C48.7078 180.476 48.5118 179.939 48.5118 179.258ZM57.0518 177.256L51.4658 187H49.8978L55.4838 177.256H57.0518ZM50.6398 178.04C50.0518 178.04 49.7578 178.446 49.7578 179.258C49.7578 180.079 50.0518 180.49 50.6398 180.49C50.9198 180.49 51.1345 180.392 51.2838 180.196C51.4425 179.991 51.5218 179.678 51.5218 179.258C51.5218 178.446 51.2278 178.04 50.6398 178.04ZM54.2098 184.984C54.2098 184.303 54.4058 183.771 54.7978 183.388C55.1992 182.996 55.7125 182.8 56.3378 182.8C56.9538 182.8 57.4578 182.996 57.8498 183.388C58.2512 183.771 58.4518 184.303 58.4518 184.984C58.4518 185.665 58.2512 186.202 57.8498 186.594C57.4578 186.986 56.9538 187.182 56.3378 187.182C55.7125 187.182 55.1992 186.986 54.7978 186.594C54.4058 186.202 54.2098 185.665 54.2098 184.984ZM56.3238 183.766C55.7358 183.766 55.4418 184.172 55.4418 184.984C55.4418 185.796 55.7358 186.202 56.3238 186.202C56.9118 186.202 57.2058 185.796 57.2058 184.984C57.2058 184.172 56.9118 183.766 56.3238 183.766ZM70.7118 179.286V187H69.1158V186.09C68.8638 186.407 68.5324 186.659 68.1218 186.846C67.7204 187.023 67.2911 187.112 66.8338 187.112C66.2271 187.112 65.6811 186.986 65.1958 186.734C64.7198 186.482 64.3418 186.109 64.0618 185.614C63.7911 185.119 63.6558 184.522 63.6558 183.822V179.286H65.2378V183.584C65.2378 184.275 65.4104 184.807 65.7558 185.18C66.1011 185.544 66.5724 185.726 67.1698 185.726C67.7671 185.726 68.2384 185.544 68.5838 185.18C68.9384 184.807 69.1158 184.275 69.1158 183.584V179.286H70.7118ZM75.6176 187.126C75.0109 187.126 74.4649 187.019 73.9796 186.804C73.5036 186.58 73.1256 186.281 72.8456 185.908C72.5656 185.525 72.4162 185.101 72.3976 184.634H74.0496C74.0776 184.961 74.2316 185.236 74.5116 185.46C74.8009 185.675 75.1602 185.782 75.5896 185.782C76.0376 185.782 76.3829 185.698 76.6256 185.53C76.8776 185.353 77.0036 185.129 77.0036 184.858C77.0036 184.569 76.8636 184.354 76.5836 184.214C76.3129 184.074 75.8789 183.92 75.2816 183.752C74.7029 183.593 74.2316 183.439 73.8676 183.29C73.5036 183.141 73.1862 182.912 72.9156 182.604C72.6542 182.296 72.5236 181.89 72.5236 181.386C72.5236 180.975 72.6449 180.602 72.8876 180.266C73.1302 179.921 73.4756 179.65 73.9236 179.454C74.3809 179.258 74.9036 179.16 75.4916 179.16C76.3689 179.16 77.0736 179.384 77.6056 179.832C78.1469 180.271 78.4362 180.873 78.4736 181.638H76.8776C76.8496 181.293 76.7096 181.017 76.4576 180.812C76.2056 180.607 75.8649 180.504 75.4356 180.504C75.0156 180.504 74.6936 180.583 74.4696 180.742C74.2456 180.901 74.1336 181.111 74.1336 181.372C74.1336 181.577 74.2082 181.75 74.3576 181.89C74.5069 182.03 74.6889 182.142 74.9036 182.226C75.1182 182.301 75.4356 182.399 75.8556 182.52C76.4156 182.669 76.8729 182.823 77.2276 182.982C77.5916 183.131 77.9042 183.355 78.1656 183.654C78.4269 183.953 78.5622 184.349 78.5716 184.844C78.5716 185.283 78.4502 185.675 78.2076 186.02C77.9649 186.365 77.6196 186.636 77.1716 186.832C76.7329 187.028 76.2149 187.126 75.6176 187.126ZM87.3661 182.954C87.3661 183.243 87.3474 183.505 87.3101 183.738H81.4161C81.4628 184.354 81.6914 184.849 82.1021 185.222C82.5128 185.595 83.0168 185.782 83.6141 185.782C84.4728 185.782 85.0794 185.423 85.4341 184.704H87.1561C86.9228 185.413 86.4981 185.997 85.8821 186.454C85.2754 186.902 84.5194 187.126 83.6141 187.126C82.8768 187.126 82.2141 186.963 81.6261 186.636C81.0474 186.3 80.5901 185.833 80.2541 185.236C79.9274 184.629 79.7641 183.929 79.7641 183.136C79.7641 182.343 79.9228 181.647 80.2401 181.05C80.5668 180.443 81.0194 179.977 81.5981 179.65C82.1861 179.323 82.8581 179.16 83.6141 179.16C84.3421 179.16 84.9908 179.319 85.5601 179.636C86.1294 179.953 86.5728 180.401 86.8901 180.98C87.2074 181.549 87.3661 182.207 87.3661 182.954ZM85.7001 182.45C85.6908 181.862 85.4808 181.391 85.0701 181.036C84.6594 180.681 84.1508 180.504 83.5441 180.504C82.9934 180.504 82.5221 180.681 82.1301 181.036C81.7381 181.381 81.5048 181.853 81.4301 182.45H85.7001ZM88.4047 183.108C88.4047 182.333 88.5634 181.647 88.8807 181.05C89.2074 180.453 89.6461 179.991 90.1967 179.664C90.7567 179.328 91.3774 179.16 92.0587 179.16C92.5627 179.16 93.0574 179.272 93.5427 179.496C94.0374 179.711 94.4294 180 94.7187 180.364V176.64H96.3287V187H94.7187V185.838C94.4574 186.211 94.0934 186.519 93.6267 186.762C93.1694 187.005 92.6421 187.126 92.0447 187.126C91.3727 187.126 90.7567 186.958 90.1967 186.622C89.6461 186.277 89.2074 185.801 88.8807 185.194C88.5634 184.578 88.4047 183.883 88.4047 183.108ZM94.7187 183.136C94.7187 182.604 94.6067 182.142 94.3827 181.75C94.1681 181.358 93.8834 181.059 93.5287 180.854C93.1741 180.649 92.7914 180.546 92.3807 180.546C91.9701 180.546 91.5874 180.649 91.2327 180.854C90.8781 181.05 90.5887 181.344 90.3647 181.736C90.1501 182.119 90.0427 182.576 90.0427 183.108C90.0427 183.64 90.1501 184.107 90.3647 184.508C90.5887 184.909 90.8781 185.217 91.2327 185.432C91.5967 185.637 91.9794 185.74 92.3807 185.74C92.7914 185.74 93.1741 185.637 93.5287 185.432C93.8834 185.227 94.1681 184.928 94.3827 184.536C94.6067 184.135 94.7187 183.668 94.7187 183.136Z" fill="white"/>
<defs>
<linearGradient id="paint0_linear_130_446" x1="0" y1="0" x2="374.489" y2="195.998" gradientUnits="userSpaceOnUse">
<stop offset="0.27" stop-color="#AD00FF"/>
<stop offset="0.695" stop-color="#FF00B8"/>
</linearGradient>
</defs>
</svg>
